<?xml version="1.0" encoding="utf-8"?>
<!-- Generator: Adobe Illustrator 24.1.0, SVG Export Plug-In . SVG Version: 6.00 Build 0)  -->
<svg version="1.1" id="Layer_1" xmlns="http://www.w3.org/2000/svg" xmlns:xlink="http://www.w3.org/1999/xlink" x="0px" y="0px"
	 viewBox="0 0 856.7 343.7" style="enable-background:new 0 0 856.7 343.7;" xml:space="preserve">
<style type="text/css">
	.st0{fill:#FFDCDC;stroke:#F94646;stroke-width:0.5;}
	.st1{fill:#FFA9A9;}
</style>
<path class="st0" d="M14.2,24.5v292.7l0,0.9l0.1,0.9l0.2,0.9l0.2,0.9l0.3,0.8l0.4,0.8l0.4,0.8l0.5,0.7l0.6,0.7l0.6,0.7l0.7,0.6
	l0.7,0.6l0.7,0.5l0.8,0.4l0.8,0.4L22,328l0.9,0.2l0.9,0.2l0.9,0.1l0.9,0h805.7l0.9,0l0.9-0.1l0.9-0.2l0.9-0.2l0.8-0.3l0.8-0.4
	l0.8-0.4l0.7-0.5l0.7-0.6l0.7-0.6l0.6-0.7l0.6-0.7l0.5-0.7l0.4-0.8l0.4-0.8l0.3-0.8l0.2-0.9l0.2-0.9l0.1-0.9l0-0.9V100.5l0-0.8
	l-0.1-0.9l-0.2-0.9l-0.2-0.9l-0.3-0.8l-0.4-0.8l-0.4-0.8l-0.5-0.7l-0.6-0.7l-0.6-0.7l-0.6-0.5l-0.1-0.1l-0.7-0.6l-0.7-0.5l-0.8-0.4
	l-0.8-0.4l-0.8-0.3l-0.9-0.2l-0.9-0.2l-0.9-0.1l-0.9,0l-32.8,0c-3.2,0-5.8-2.6-5.8-5.8v-3.8c0-0.4-0.4-0.8-0.8-0.8h-32.6
	c-0.9,0-1.7-0.8-1.7-1.7c0,0,0,0,0,0V49.5c0-0.9,0.8-1.7,1.7-1.7c0,0,0,0,0,0H792c0.3,0,0.6-0.2,0.7-0.6c0.3-2.4,2.3-4.2,4.7-4.2
	h33.8l0.9,0l0.9-0.1l0.9-0.2l0.9-0.2l0.8-0.3l0.8-0.4l0.8-0.4l0.7-0.5l0.7-0.6l0.7-0.6l0.6-0.7l0.6-0.7l0.5-0.7l0.4-0.8l0.4-0.8
	l0.3-0.8l0.2-0.9l0.2-0.9l0-0.4l0.1-0.5l0-0.8v-7.2l0-0.9l-0.1-0.9l-0.2-0.9L842,21l-0.3-0.8l-0.4-0.8l-0.4-0.8l-0.5-0.7l-0.6-0.7
	l-0.6-0.7l-0.7-0.6l-0.7-0.6l-0.7-0.5l-0.8-0.4l-0.8-0.4l-0.8-0.3l-0.9-0.2l-0.9-0.2l-0.9-0.1l-0.9,0H25.5l-0.9,0l-0.9,0.1l-0.9,0.2
	L22,13.7L21.2,14l-0.8,0.4l-0.8,0.4l-0.7,0.5l-0.7,0.6l-0.7,0.6l-0.6,0.7l-0.6,0.7l-0.5,0.7l-0.4,0.8L15,20.2L14.7,21l-0.2,0.9
	l-0.2,0.9l-0.1,0.9L14.2,24.5z M709.7,62.2v16.9c0,0.9-0.8,1.7-1.7,1.7h-12.5c-0.9,0-1.7-0.8-1.7-1.7V62.2c0-0.9,0.8-1.7,1.7-1.7
	H708C708.9,60.5,709.7,61.3,709.7,62.2C709.7,62.2,709.7,62.2,709.7,62.2z M162.3,25.1c0,2.4-2,4.4-4.4,4.4c-2.4,0-4.4-2-4.4-4.4
	c0-2.4,2-4.4,4.4-4.4c0,0,0,0,0,0C160.3,20.8,162.3,22.7,162.3,25.1z M270.3,25.1c0,2.4-2,4.4-4.4,4.4c-2.4,0-4.4-2-4.4-4.4
	s2-4.4,4.4-4.4c0,0,0,0,0,0C268.4,20.8,270.3,22.7,270.3,25.1C270.3,25.1,270.3,25.1,270.3,25.1z M378.3,25.1c0,2.4-2,4.4-4.4,4.4
	c-2.4,0-4.4-2-4.4-4.4s2-4.4,4.4-4.4c0,0,0,0,0,0C376.4,20.8,378.3,22.7,378.3,25.1L378.3,25.1z M486.3,25.1c0,2.4-2,4.4-4.4,4.4
	c-2.4,0-4.4-2-4.4-4.4s2-4.4,4.4-4.4c0,0,0,0,0,0C484.4,20.8,486.3,22.7,486.3,25.1L486.3,25.1z M594.3,25.1c0,2.4-2,4.4-4.4,4.4
	s-4.4-2-4.4-4.4s2-4.4,4.4-4.4c0,0,0,0,0,0C592.4,20.8,594.3,22.7,594.3,25.1L594.3,25.1z M702.3,25.1c0,2.4-2,4.4-4.4,4.4
	s-4.4-2-4.4-4.4s2-4.4,4.4-4.4c0,0,0,0,0,0C700.4,20.8,702.3,22.7,702.3,25.1L702.3,25.1z M825.5,316.1c0-2.4,2-4.4,4.4-4.4
	c2.4,0,4.4,2,4.4,4.4c0,2.4-2,4.4-4.4,4.4l0,0C827.5,320.5,825.5,318.6,825.5,316.1C825.5,316.1,825.5,316.1,825.5,316.1
	L825.5,316.1z M825.5,224.6c0-2.4,2-4.4,4.4-4.4c2.4,0,4.4,2,4.4,4.4c0,2.4-2,4.4-4.4,4.4l0,0C827.5,229,825.5,227.1,825.5,224.6
	C825.5,224.6,825.5,224.6,825.5,224.6L825.5,224.6z M825.5,116.6c0-2.4,2-4.4,4.4-4.4c2.4,0,4.4,2,4.4,4.4c0,2.4-2,4.4-4.4,4.4l0,0
	C827.5,121,825.5,119.1,825.5,116.6C825.5,116.6,825.5,116.6,825.5,116.6L825.5,116.6z M825.5,25.1c0-2.4,2-4.4,4.4-4.4
	c2.4,0,4.4,2,4.4,4.4s-2,4.4-4.4,4.4l0,0C827.5,29.5,825.5,27.6,825.5,25.1C825.5,25.2,825.5,25.1,825.5,25.1L825.5,25.1z
	 M693.5,316.1c0-2.4,2-4.4,4.4-4.4c2.4,0,4.4,2,4.4,4.4c0,2.4-2,4.4-4.4,4.4l0,0C695.5,320.5,693.5,318.6,693.5,316.1
	C693.5,316.1,693.5,316.1,693.5,316.1z M585.5,316.1c0-2.4,2-4.4,4.4-4.4c2.4,0,4.4,2,4.4,4.4c0,2.4-2,4.4-4.4,4.4c0,0,0,0,0,0
	C587.5,320.5,585.5,318.6,585.5,316.1L585.5,316.1z M477.5,316.1c0-2.4,2-4.4,4.4-4.4s4.4,2,4.4,4.4c0,2.4-2,4.4-4.4,4.4
	C479.5,320.5,477.5,318.6,477.5,316.1L477.5,316.1z M369.5,316.1c0-2.4,2-4.4,4.4-4.4s4.4,2,4.4,4.4c0,2.4-2,4.4-4.4,4.4
	C371.5,320.5,369.5,318.6,369.5,316.1L369.5,316.1z M261.5,316.1c0-2.4,2-4.4,4.4-4.4s4.4,2,4.4,4.4c0,2.4-2,4.4-4.4,4.4
	C263.5,320.5,261.5,318.6,261.5,316.1L261.5,316.1z M153.5,316.1c0-2.4,2-4.4,4.4-4.4s4.4,2,4.4,4.4c0,2.4-2,4.4-4.4,4.4
	C155.5,320.5,153.5,318.6,153.5,316.1L153.5,316.1z M21.5,316.1c0-2.4,2-4.4,4.4-4.4s4.4,2,4.4,4.4c0,2.4-2,4.4-4.4,4.4c0,0,0,0,0,0
	C23.5,320.5,21.5,318.6,21.5,316.1L21.5,316.1z M21.5,224.6c0-2.4,2-4.4,4.4-4.4s4.4,2,4.4,4.4c0,2.4-2,4.4-4.4,4.4c0,0,0,0,0,0
	C23.5,229,21.5,227.1,21.5,224.6L21.5,224.6z M21.5,116.6c0-2.4,2-4.4,4.4-4.4s4.4,2,4.4,4.4c0,2.4-2,4.4-4.4,4.4c0,0,0,0,0,0
	C23.5,121,21.5,119.1,21.5,116.6L21.5,116.6z M21.5,25.1c0-2.4,2-4.4,4.4-4.4s4.4,2,4.4,4.4s-2,4.4-4.4,4.4c0,0,0,0,0,0
	C23.5,29.5,21.5,27.6,21.5,25.1L21.5,25.1z"/>
<path class="st1" d="M380.6,210.4v-0.5c0-0.4-0.1-0.9-0.2-1.3l0-0.1c-0.1-0.3-0.3-0.6-0.5-0.8c-0.2-0.2-0.4-0.4-0.7-0.5
	c-0.3-0.1-0.7-0.2-1-0.2c-0.3,0-0.6,0.1-0.9,0.2c-0.3,0.1-0.5,0.3-0.7,0.5c-0.2,0.2-0.4,0.4-0.5,0.7c-0.1,0.3-0.2,0.5-0.3,0.8
	c-0.1,0.3-0.1,0.6-0.2,0.9c0,0.3-0.1,0.6-0.1,0.9v1.7c0,0.3,0,0.6,0.1,0.9c0,0.3,0.1,0.6,0.2,0.9c0.1,0.3,0.2,0.6,0.3,0.8
	c0.1,0.3,0.3,0.5,0.5,0.7c0.2,0.2,0.4,0.4,0.7,0.5c0.3,0.1,0.6,0.2,0.9,0.2c0.3,0,0.7-0.1,1-0.2c0.3-0.1,0.5-0.3,0.7-0.5
	c0.2-0.2,0.4-0.5,0.5-0.8c0,0,0-0.1,0-0.1c0.1-0.4,0.2-0.8,0.2-1.3v-0.7h1.5v0.7c0,0.4,0,0.8-0.1,1.1v0c-0.1,0.3-0.2,0.5-0.3,0.7
	c-0.2,0.4-0.5,0.8-0.8,1.2c-0.3,0.3-0.7,0.6-1.2,0.8c-0.5,0.2-1,0.3-1.5,0.3c-0.4,0-0.9-0.1-1.3-0.2c-0.4-0.1-0.7-0.3-1.1-0.6
	c-0.3-0.2-0.6-0.5-0.8-0.9c-0.2-0.3-0.4-0.7-0.6-1.1c-0.1-0.4-0.3-0.8-0.3-1.2c-0.1-0.4-0.1-0.9-0.1-1.3V211c0-0.4,0-0.9,0.1-1.3
	c0.1-0.4,0.2-0.8,0.3-1.2c0.1-0.4,0.3-0.7,0.6-1.1c0.2-0.3,0.5-0.6,0.8-0.9c0.3-0.2,0.7-0.4,1-0.6c0.4-0.1,0.9-0.2,1.3-0.2
	c0.5,0,1.1,0.1,1.6,0.3c0.4,0.2,0.8,0.4,1.2,0.8c0.3,0.3,0.6,0.7,0.8,1.2c0.1,0.1,0.1,0.3,0.2,0.4c0,0,0,0.1,0,0.1
	c0.1,0.5,0.2,0.9,0.2,1.4v0.5L380.6,210.4z"/>
<path class="st1" d="M384.4,205.9h7.1v1.3h-2.8v9.1h2.8v1.3h-7.1v-1.3h2.7v-9.1h-2.7L384.4,205.9z"/>
<path class="st1" d="M401.7,217.6h-1.5l-4.5-8.7l0,8.7h-1.5v-11.7h1.5l4.5,8.7l0-8.7h1.5V217.6z"/>
<path class="st1" d="M404,205.9h2.7c0.7,0,1.5,0.1,2.2,0.4c0.6,0.2,1.2,0.6,1.6,1.1c0.5,0.5,0.8,1.1,1,1.7c0.2,0.7,0.4,1.5,0.4,2.2
	v0.9c0,0.7-0.1,1.5-0.4,2.2c-0.2,0.6-0.6,1.2-1,1.7c-0.5,0.5-1,0.9-1.6,1.1c-0.7,0.3-1.4,0.4-2.2,0.4H404V205.9z M405.5,207.1v9.3
	h1.2c0.6,0,1.1-0.1,1.6-0.3c0.4-0.2,0.8-0.5,1.1-0.9c0.3-0.4,0.5-0.8,0.7-1.3c0.2-0.5,0.2-1.1,0.2-1.7v-0.9c0-0.6-0.1-1.1-0.2-1.6
	c-0.1-0.5-0.4-0.9-0.7-1.3c-0.3-0.4-0.7-0.7-1.1-0.9c-0.5-0.2-1.1-0.3-1.6-0.3L405.5,207.1z"/>
<path class="st1" d="M420.7,212.2h-4.9v4.1h5.7v1.3h-7.2v-11.7h7.1v1.3h-5.6v3.8h4.9V212.2z"/>
<path class="st1" d="M431.8,212.2v5.4h-1.5v-4.8h-4.7v4.8h-1.5v-11.7h3.4c0.5,0,1,0.1,1.5,0.2c0.5,0.1,0.9,0.4,1.3,0.6
	c0.4,0.3,0.7,0.7,0.9,1.1c0.2,0.5,0.3,1,0.3,1.5c0,0.4-0.1,0.7-0.2,1c-0.1,0.3-0.3,0.6-0.5,0.9c-0.2,0.3-0.4,0.5-0.7,0.7
	c-0.1,0.1-0.2,0.1-0.2,0.2H431.8z M425.6,211.6h2c0.3,0,0.6-0.1,0.9-0.2c0.3-0.1,0.5-0.2,0.8-0.4c0.2-0.2,0.4-0.4,0.5-0.7
	c0.1-0.3,0.2-0.6,0.2-0.9c0-0.3-0.1-0.7-0.2-1c-0.1-0.3-0.3-0.5-0.5-0.7c-0.2-0.2-0.5-0.3-0.8-0.4c-0.3-0.1-0.7-0.2-1-0.2h-2V211.6z
	"/>
<path class="st1" d="M441.7,211.5v6.2h-7.6v-11.7h3.5c0.5,0,1,0.1,1.4,0.2c0.4,0.1,0.9,0.3,1.2,0.6c0.8,0.5,1.2,1.4,1.2,2.4
	c0,0.3-0.1,0.6-0.1,0.8c-0.1,0.2-0.2,0.5-0.4,0.7c-0.2,0.2-0.4,0.4-0.6,0.5c-0.2,0.2-0.5,0.3-0.7,0.4L441.7,211.5z M435.6,210.9h2.1
	c0.3,0,0.6,0,0.8-0.1c0.3-0.1,0.5-0.2,0.7-0.4c0.2-0.2,0.4-0.4,0.5-0.6c0.1-0.2,0.2-0.5,0.2-0.8c0-0.3-0.1-0.6-0.2-0.8
	c-0.1-0.2-0.3-0.4-0.5-0.6c-0.2-0.2-0.5-0.3-0.7-0.3c-0.3-0.1-0.6-0.1-0.8-0.1h-2L435.6,210.9z M440.2,212.1h-4.6v4.2h4.6
	L440.2,212.1z"/>
<path class="st1" d="M445.8,216.4h5.7v1.3h-7.2v-11.7h1.5L445.8,216.4z"/>
<path class="st1" d="M461.8,213.7c-0.1,0.4-0.2,0.8-0.3,1.2c-0.1,0.4-0.3,0.8-0.5,1.1c-0.2,0.3-0.5,0.6-0.8,0.9
	c-0.3,0.3-0.7,0.5-1,0.6c-0.8,0.3-1.8,0.3-2.6,0c-0.4-0.1-0.7-0.3-1-0.6c-0.3-0.3-0.6-0.6-0.8-0.9c-0.2-0.3-0.4-0.7-0.5-1.1
	c-0.1-0.4-0.2-0.8-0.3-1.2c-0.1-0.4-0.1-0.8-0.1-1.3v-1.3c0-0.4,0-0.8,0.1-1.3c0.1-0.4,0.2-0.8,0.3-1.2c0.1-0.4,0.3-0.8,0.5-1.1
	c0.2-0.3,0.5-0.6,0.8-0.9c0.3-0.3,0.7-0.5,1-0.6c0.8-0.3,1.8-0.3,2.6,0c0.4,0.1,0.7,0.3,1,0.6c0.3,0.3,0.6,0.6,0.8,0.9
	c0.2,0.4,0.4,0.7,0.5,1.1c0.1,0.4,0.2,0.8,0.3,1.2c0.1,0.4,0.1,0.8,0.1,1.3v1.3C461.9,212.9,461.9,213.3,461.8,213.7z M460.5,211.1
	c0-0.3,0-0.6-0.1-0.9c0-0.3-0.1-0.6-0.2-0.9c-0.1-0.3-0.2-0.6-0.3-0.9c-0.1-0.3-0.3-0.5-0.5-0.7c-0.4-0.4-1-0.7-1.6-0.7
	c-0.3,0-0.6,0.1-0.9,0.2c-0.3,0.1-0.5,0.3-0.7,0.5c-0.2,0.2-0.4,0.5-0.5,0.7c-0.1,0.3-0.2,0.6-0.3,0.9c-0.1,0.3-0.1,0.6-0.2,0.9
	c0,0.3-0.1,0.6-0.1,0.9v1.3c0,0.3,0,0.6,0.1,0.9c0,0.3,0.1,0.6,0.2,0.9c0.1,0.3,0.2,0.6,0.3,0.9c0.1,0.3,0.3,0.5,0.5,0.7
	c0.2,0.2,0.4,0.4,0.7,0.5c0.3,0.1,0.6,0.2,0.9,0.2c0.6,0,1.2-0.2,1.6-0.7c0.2-0.2,0.4-0.5,0.5-0.7c0.1-0.3,0.2-0.6,0.3-0.9
	c0.1-0.3,0.1-0.6,0.2-0.9c0-0.3,0-0.6,0.1-0.9L460.5,211.1z"/>
<path class="st1" d="M470.4,210.4v-0.5c0-0.4-0.1-0.9-0.2-1.3l0-0.1c-0.1-0.3-0.3-0.6-0.5-0.8c-0.2-0.2-0.4-0.4-0.7-0.5
	c-0.3-0.1-0.7-0.2-1-0.2c-0.3,0-0.6,0.1-0.9,0.2c-0.3,0.1-0.5,0.3-0.7,0.5c-0.2,0.2-0.4,0.4-0.5,0.7c-0.1,0.3-0.2,0.5-0.3,0.8
	c-0.1,0.3-0.1,0.6-0.2,0.9c0,0.3-0.1,0.6-0.1,0.9v1.7c0,0.3,0,0.6,0.1,0.9c0,0.3,0.1,0.6,0.2,0.9c0.1,0.3,0.2,0.6,0.3,0.8
	c0.1,0.3,0.3,0.5,0.5,0.7c0.2,0.2,0.4,0.4,0.7,0.5c0.3,0.1,0.6,0.2,0.9,0.2c0.3,0,0.7-0.1,1-0.2c0.3-0.1,0.5-0.3,0.7-0.5
	c0.2-0.2,0.4-0.5,0.5-0.8c0,0,0-0.1,0-0.1c0.1-0.4,0.2-0.8,0.2-1.3v-0.7h1.5v0.7c0,0.4,0,0.8-0.1,1.1v0c-0.1,0.3-0.2,0.5-0.3,0.7
	c-0.2,0.4-0.5,0.8-0.8,1.2c-0.3,0.3-0.7,0.6-1.2,0.8c-0.5,0.2-1,0.3-1.5,0.3c-0.4,0-0.9-0.1-1.3-0.2c-0.4-0.1-0.7-0.3-1.1-0.6
	c-0.3-0.2-0.6-0.5-0.8-0.9c-0.2-0.3-0.4-0.7-0.6-1.1c-0.1-0.4-0.3-0.8-0.3-1.2c-0.1-0.4-0.1-0.9-0.1-1.3V211c0-0.4,0-0.9,0.1-1.3
	c0.1-0.4,0.2-0.8,0.3-1.2c0.1-0.4,0.3-0.7,0.6-1.1c0.2-0.3,0.5-0.6,0.8-0.9c0.3-0.2,0.7-0.4,1-0.6c0.4-0.1,0.9-0.2,1.3-0.2
	c0.5,0,1.1,0.1,1.6,0.3c0.4,0.2,0.8,0.4,1.2,0.8c0.3,0.3,0.6,0.7,0.8,1.2c0.1,0.1,0.1,0.3,0.2,0.4l0,0.1c0.1,0.5,0.2,0.9,0.2,1.4
	v0.5L470.4,210.4z"/>
<path class="st1" d="M480.1,205.9h1.8l-4.4,6.6l4.1,5.1h-1.8l-3.4-4.3l-1.1-1.4v5.7h-1.5v-11.7h1.5v3.9l1.3,1.5L480.1,205.9z"/>
<path class="st1" d="M432.9,173.9l-8.9-4.4c-0.1,0-0.2,0-0.2,0c-0.1,0-0.1,0.1-0.1,0.2v11.9c0,0.1,0.1,0.2,0.1,0.2l8.8,4.4l0.1,0.1
	c0,0,0.1,0,0.1,0c0,0,0.1,0,0.1,0c0.1,0,0.1-0.1,0.1-0.2v-11.9C433,174,433,173.9,432.9,173.9z M424.5,181.5l8-4v8.1L424.5,181.5z
	 M424.1,170l8.4,4.2v2.7l-8.4,4.2V170z"/>
<path class="st1" d="M420.9,167.9l-8.9-4.4c-0.1,0-0.2,0-0.2,0c-0.1,0-0.1,0.1-0.1,0.2v11.9c0,0.1,0.1,0.2,0.1,0.2l8.8,4.4l0.1,0.1
	c0,0,0.1,0,0.1,0c0,0,0.1,0,0.1,0c0.1,0,0.1-0.1,0.1-0.2v-11.9C421,168.1,421,168,420.9,167.9z M412.5,175.6l8-4v8.1L412.5,175.6z
	 M412.1,164.1l8.4,4.2v2.7l-8.4,4.2V164.1z"/>
<path class="st1" d="M450.7,182.7l-2.9-1.4v-8.6l2.8-1.4c0.1,0,0.1-0.1,0.1-0.2v-2.8c0,0,0.1-0.1,0.1-0.2c0-0.1-0.1-0.2-0.1-0.2
	l-32.7-16.3c-0.1,0-0.2,0-0.2,0l-11.9,5.9l0,0h0c0,0,0,0-0.1,0.1c0,0,0,0,0,0c0,0,0,0.1,0,0.1v3c0,0.1,0.1,0.2,0.1,0.2l2.8,1.4v8.6
	l-2.8,1.4l0,0h0c0,0,0,0-0.1,0.1c0,0,0,0,0,0c0,0,0,0.1,0,0.1v3c0,0.1,0.1,0.2,0.1,0.2l32.6,16.3c0.1,0,0.2,0,0.2,0l11.9-5.9
	c0.1,0,0.1-0.1,0.1-0.2v-2.8c0,0,0.1-0.1,0.1-0.2C450.9,182.9,450.8,182.8,450.7,182.7z M450.3,185.8l-11.4,5.7v-2.4l11.4-5.7V185.8
	z M406.6,172.6l2.2-1.1v2.2L406.6,172.6z M450,168.1l-11.3,5.6l-32.1-16l11.3-5.6L450,168.1z M406.3,173l2.6,1.3c0,0,0.1,0,0.1,0h0
	c0,0,0.1,0,0.1,0c0.1,0,0.1-0.1,0.1-0.2v-11.9c0-0.1-0.1-0.2-0.1-0.2l-2.8-1.4v-2.4l32.1,16.1v2.4l-2.6-1.3c-0.1-0.1-0.3,0-0.3,0.1
	c0,0,0,0.1,0,0.1v11.9l0,0v0c0,0,0,0.1,0,0.1v0c0,0,0,0,0,0c0,0,0,0,0.1,0.1h0l0,0l2.8,1.4v2.4l-32.1-16.1L406.3,173z M438.7,188.6
	l-2.4-1.2l0.4-0.2l10.9-5.4l2.4,1.2L438.7,188.6z M447.3,181.3l-3.1,1.6L436,187v-11l2.6,1.3c0,0,0,0,0.1,0c0,0,0,0,0,0h0
	c0,0,0,0,0,0c0,0,0.1,0,0.1,0l0,0l3.7-1.9l4.8-2.4L447.3,181.3z M450.3,171l-2.8,1.4l0,0l-8.5,4.3v-2.4l11.4-5.7L450.3,171z"/>
</svg>
