<svg id="Layer_1" data-name="Layer 1" xmlns="http://www.w3.org/2000/svg" width="302.227mm" height="121.252mm" viewBox="0 0 856.706 343.706"><defs><style>.cls-1{fill:#ffdcdc;stroke:#f94646;stroke-width:0.5px;}.cls-2{fill:#ffa9a9;}</style></defs><title>CB70_0.1_Plate</title><path class="cls-1" d="M14.173,25.515V318.192l.037.89.1.884.173.873.241.859.309.834.371.808.437.776.493.743.553.7.6.655.655.6.7.553.742.493.777.436.808.372.833.309.859.241.873.172.885.1.887.037,805.68,0,.89-.034.884-.1.873-.172.859-.241.834-.309.808-.372.776-.436.743-.493.7-.553.655-.6.6-.655.553-.7.493-.743.436-.776.372-.808.309-.834.241-.859.172-.873.105-.884.037-.89,0-216.672-.032-.834-.105-.884-.173-.873-.241-.859-.309-.833-.371-.808-.436-.777-.494-.743-.552-.7-.6-.655-.554-.51-.1-.093-.7-.553-.743-.493-.777-.437-.808-.371-.833-.309-.859-.241-.873-.173-.884-.1-.89-.037-32.761-.016a5.787,5.787,0,0,1-5.784-5.787V80.627a.805.805,0,0,0-.8-.8h-32.6a1.706,1.706,0,0,1-1.706-1.707V50.465a1.706,1.706,0,0,1,1.706-1.707h32.778a.652.652,0,0,0,.659-.554,4.752,4.752,0,0,1,4.719-4.2H831.2l.89-.037.884-.1.873-.173.859-.241.833-.309.808-.371.777-.437.743-.493.7-.552.655-.6.6-.655.552-.7.494-.743.436-.777.371-.808.309-.833.241-.859.173-.873.042-.352.063-.532.031-.819V25.515l-.034-.89-.105-.885-.172-.873-.241-.859-.309-.833-.372-.808-.436-.777-.493-.742-.553-.7-.6-.655-.655-.6-.7-.553-.743-.493-.776-.437-.808-.371-.834-.309-.859-.241-.873-.173-.884-.1-.89-.037-805.68,0-.887.034-.885.1-.873.173-.859.241-.833.309-.808.371-.777.437-.742.493-.7.553-.655.6-.6.655-.553.7-.493.742-.437.777-.371.808-.309.833-.241.859-.173.873-.1.885ZM709.659,63.194V80.115a1.708,1.708,0,0,1-1.708,1.707h-12.5a1.707,1.707,0,0,1-1.707-1.707V63.194a1.708,1.708,0,0,1,1.707-1.708h12.5A1.708,1.708,0,0,1,709.659,63.194ZM162.316,26.147a4.394,4.394,0,1,1-4.394-4.393A4.394,4.394,0,0,1,162.316,26.147Zm108.008,0a4.394,4.394,0,1,1-4.393-4.393A4.393,4.393,0,0,1,270.324,26.147Zm108,0a4.394,4.394,0,1,1-4.394-4.393A4.394,4.394,0,0,1,378.323,26.147Zm108,0a4.394,4.394,0,1,1-4.393-4.393A4.393,4.393,0,0,1,486.321,26.147Zm108,0a4.394,4.394,0,1,1-4.394-4.393A4.394,4.394,0,0,1,594.32,26.147Zm108,0a4.394,4.394,0,1,1-4.394-4.393A4.394,4.394,0,0,1,702.319,26.147Zm123.2,290.982a4.394,4.394,0,1,1,4.394,4.394A4.393,4.393,0,0,1,825.521,317.129Zm0-91.491a4.394,4.394,0,1,1,4.394,4.394A4.393,4.393,0,0,1,825.521,225.638Zm0-108a4.394,4.394,0,1,1,4.394,4.394A4.393,4.393,0,0,1,825.521,117.638Zm0-91.491a4.394,4.394,0,1,1,4.394,4.394A4.393,4.393,0,0,1,825.521,26.147ZM693.531,317.129a4.394,4.394,0,1,1,4.394,4.394A4.393,4.393,0,0,1,693.531,317.129Zm-108,0a4.394,4.394,0,1,1,4.393,4.394A4.393,4.393,0,0,1,585.533,317.129Zm-108,0a4.394,4.394,0,1,1,4.394,4.394A4.393,4.393,0,0,1,477.534,317.129Zm-108,0a4.394,4.394,0,1,1,4.394,4.394A4.394,4.394,0,0,1,369.535,317.129Zm-108,0a4.394,4.394,0,1,1,4.394,4.394A4.393,4.393,0,0,1,261.537,317.129Zm-108.009,0a4.394,4.394,0,1,1,4.394,4.394A4.393,4.393,0,0,1,153.528,317.129Zm-131.989,0a4.394,4.394,0,1,1,4.393,4.394A4.393,4.393,0,0,1,21.539,317.129Zm0-91.491a4.394,4.394,0,1,1,4.393,4.394A4.393,4.393,0,0,1,21.539,225.638Zm0-108a4.394,4.394,0,1,1,4.393,4.394A4.393,4.393,0,0,1,21.539,117.638Zm0-91.491a4.394,4.394,0,1,1,4.393,4.394A4.393,4.393,0,0,1,21.539,26.147Z"/><path class="cls-2" d="M380.553,210.445V209.9a3.813,3.813,0,0,0-.215-1.284l-.034-.093a2.711,2.711,0,0,0-.473-.8,2.089,2.089,0,0,0-.727-.542,2.408,2.408,0,0,0-1.016-.2,2.37,2.37,0,0,0-.935.172,2.159,2.159,0,0,0-.7.471,2.654,2.654,0,0,0-.489.69,4.421,4.421,0,0,0-.318.835,5.9,5.9,0,0,0-.172.9,7.921,7.921,0,0,0-.052.9V212.6a7.921,7.921,0,0,0,.052.9,6.059,6.059,0,0,0,.172.908,4.7,4.7,0,0,0,.313.838,2.657,2.657,0,0,0,.49.7,2.186,2.186,0,0,0,.7.473,2.345,2.345,0,0,0,.939.173,2.543,2.543,0,0,0,1.016-.185,2.039,2.039,0,0,0,.727-.517,2.56,2.56,0,0,0,.473-.787c.012-.031.023-.06.034-.092a3.761,3.761,0,0,0,.215-1.275v-.669h1.485v.661a4.294,4.294,0,0,1-.145,1.128l0,.007a4.75,4.75,0,0,1-.27.746,3.86,3.86,0,0,1-.815,1.164,3.551,3.551,0,0,1-1.188.755,4.172,4.172,0,0,1-1.53.268,4.006,4.006,0,0,1-1.313-.2,3.626,3.626,0,0,1-1.051-.566,3.726,3.726,0,0,1-.8-.852,5.131,5.131,0,0,1-.554-1.067,6.477,6.477,0,0,1-.33-1.212,8.329,8.329,0,0,1-.116-1.285v-1.63a8.34,8.34,0,0,1,.116-1.285,6.5,6.5,0,0,1,.33-1.212,5.273,5.273,0,0,1,.554-1.072,3.72,3.72,0,0,1,.8-.855,3.635,3.635,0,0,1,1.048-.566,3.982,3.982,0,0,1,1.316-.2,4.3,4.3,0,0,1,1.565.268,3.446,3.446,0,0,1,1.189.763,3.766,3.766,0,0,1,.8,1.185c.058.134.111.272.158.414.011.035.023.07.033.1a4.923,4.923,0,0,1,.206,1.433v.506Z"/><path class="cls-2" d="M384.437,205.925H391.5v1.292h-2.8v9.113h2.8v1.285h-7.066V216.33h2.738v-9.113h-2.738Z"/><path class="cls-2" d="M401.742,217.615h-1.509l-4.536-8.736-.025,8.736h-1.5v-11.69h1.509l4.536,8.719.025-8.719h1.5Z"/><path class="cls-2" d="M404.005,205.925h2.706a5.858,5.858,0,0,1,2.179.413,4.568,4.568,0,0,1,1.622,1.108,4.807,4.807,0,0,1,1.012,1.7,6.7,6.7,0,0,1,.357,2.2v.859a6.7,6.7,0,0,1-.357,2.2,4.8,4.8,0,0,1-1.012,1.7,4.555,4.555,0,0,1-1.622,1.108,5.76,5.76,0,0,1-2.179.406h-2.706Zm1.509,1.22V216.4h1.2a3.888,3.888,0,0,0,1.638-.333,3.208,3.208,0,0,0,1.143-.887,3.74,3.74,0,0,0,.675-1.325,6.114,6.114,0,0,0,.228-1.654v-.875a5.912,5.912,0,0,0-.233-1.649,3.787,3.787,0,0,0-.673-1.318,3.149,3.149,0,0,0-1.14-.879,4.031,4.031,0,0,0-1.638-.337Z"/><path class="cls-2" d="M420.708,212.211h-4.881v4.143h5.692v1.261h-7.177v-11.69h7.105v1.268h-5.62v3.758h4.881Z"/><path class="cls-2" d="M431.758,212.179v5.436h-1.477v-4.754h-4.729v4.754h-1.477v-11.69H427.5a5.731,5.731,0,0,1,1.542.233,3.7,3.7,0,0,1,1.264.65,3.033,3.033,0,0,1,.852,1.088,3.579,3.579,0,0,1,.308,1.537,3.18,3.18,0,0,1-.164,1.044,3.136,3.136,0,0,1-.454.859,3.336,3.336,0,0,1-.69.683c-.076.055-.153.109-.233.16Zm-6.206-.554h1.991a3.076,3.076,0,0,0,.94-.156,2.389,2.389,0,0,0,.775-.43,2.024,2.024,0,0,0,.525-.686,2.149,2.149,0,0,0,.193-.935,2.438,2.438,0,0,0-.184-.985,1.958,1.958,0,0,0-.514-.7,2.189,2.189,0,0,0-.783-.43,3.426,3.426,0,0,0-.992-.152h-1.951Z"/><path class="cls-2" d="M441.705,211.464v6.151h-7.6v-11.69h3.476a5.775,5.775,0,0,1,1.413.189,3.779,3.779,0,0,1,1.229.558,2.712,2.712,0,0,1,1.171,2.368,2.51,2.51,0,0,1-.148.835,2.4,2.4,0,0,1-.385.679,2.693,2.693,0,0,1-.575.525,4.117,4.117,0,0,1-.7.385Zm-6.11-.554h2.071a2.932,2.932,0,0,0,.819-.131,2.305,2.305,0,0,0,.715-.362,1.875,1.875,0,0,0,.506-.582,1.625,1.625,0,0,0,.192-.8,1.717,1.717,0,0,0-.188-.835,1.641,1.641,0,0,0-.506-.566,2.231,2.231,0,0,0-.731-.325,3.691,3.691,0,0,0-.847-.112H435.6Zm4.608,1.237H435.6v4.207H440.2Z"/><path class="cls-2" d="M445.774,216.354h5.716v1.261h-7.2v-11.69h1.485Z"/><path class="cls-2" d="M461.842,213.715a7.008,7.008,0,0,1-.309,1.232,5.407,5.407,0,0,1-.534,1.109,4.011,4.011,0,0,1-.774.9,3.45,3.45,0,0,1-1.032.606,3.978,3.978,0,0,1-2.609,0,3.438,3.438,0,0,1-1.032-.606,4,4,0,0,1-.779-.9,5.553,5.553,0,0,1-.542-1.111,6.972,6.972,0,0,1-.317-1.229,8.452,8.452,0,0,1-.113-1.261v-1.332a8.808,8.808,0,0,1,.109-1.265,6.761,6.761,0,0,1,.313-1.232,5.686,5.686,0,0,1,.538-1.112,4.015,4.015,0,0,1,.775-.908,3.422,3.422,0,0,1,1.031-.61,3.989,3.989,0,0,1,2.613,0,3.424,3.424,0,0,1,1.036.607,3.932,3.932,0,0,1,.776.9,5.759,5.759,0,0,1,.537,1.111,6.762,6.762,0,0,1,.313,1.238,8.859,8.859,0,0,1,.108,1.268v1.332A8.793,8.793,0,0,1,461.842,213.715Zm-1.361-2.613c0-.279-.023-.569-.056-.871a6.056,6.056,0,0,0-.165-.9,4.778,4.778,0,0,0-.308-.85,2.788,2.788,0,0,0-.482-.715,2.088,2.088,0,0,0-1.6-.671,2.114,2.114,0,0,0-.907.185,2.208,2.208,0,0,0-.683.494,2.826,2.826,0,0,0-.482.714,4.9,4.9,0,0,0-.309.851,6.628,6.628,0,0,0-.168.9c-.035.3-.055.589-.06.863v1.348q.007.41.06.868a6.174,6.174,0,0,0,.173.9,5.1,5.1,0,0,0,.313.855,2.752,2.752,0,0,0,.482.719,2.189,2.189,0,0,0,.682.493,2.132,2.132,0,0,0,.915.185,2.1,2.1,0,0,0,1.6-.678,2.816,2.816,0,0,0,.474-.715,5.024,5.024,0,0,0,.3-.851,5.658,5.658,0,0,0,.161-.9c.03-.306.047-.6.052-.876Z"/><path class="cls-2" d="M470.432,210.445V209.9a3.813,3.813,0,0,0-.215-1.284l-.034-.093a2.713,2.713,0,0,0-.474-.8,2.085,2.085,0,0,0-.726-.542,2.408,2.408,0,0,0-1.016-.2,2.367,2.367,0,0,0-.935.172,2.148,2.148,0,0,0-.7.471,2.631,2.631,0,0,0-.489.69,4.421,4.421,0,0,0-.318.835,6.024,6.024,0,0,0-.172.9,7.921,7.921,0,0,0-.052.9V212.6a7.921,7.921,0,0,0,.052.9,6.187,6.187,0,0,0,.172.908,4.7,4.7,0,0,0,.313.838,2.634,2.634,0,0,0,.49.7,2.193,2.193,0,0,0,.7.473,2.354,2.354,0,0,0,.94.173,2.543,2.543,0,0,0,1.016-.185,2.035,2.035,0,0,0,.726-.517,2.562,2.562,0,0,0,.474-.787c.012-.031.023-.06.034-.092a3.761,3.761,0,0,0,.215-1.275v-.669h1.485v.661a4.337,4.337,0,0,1-.145,1.128l0,.007a4.75,4.75,0,0,1-.27.746,3.878,3.878,0,0,1-.815,1.164,3.551,3.551,0,0,1-1.188.755,4.172,4.172,0,0,1-1.53.268,4.006,4.006,0,0,1-1.313-.2,3.626,3.626,0,0,1-1.051-.566,3.7,3.7,0,0,1-.8-.852,5.084,5.084,0,0,1-.554-1.067,6.328,6.328,0,0,1-.33-1.212,8.207,8.207,0,0,1-.116-1.285v-1.63a8.218,8.218,0,0,1,.116-1.285,6.348,6.348,0,0,1,.33-1.212,5.223,5.223,0,0,1,.554-1.072,3.7,3.7,0,0,1,.8-.855,3.635,3.635,0,0,1,1.048-.566,3.982,3.982,0,0,1,1.316-.2,4.3,4.3,0,0,1,1.565.268,3.446,3.446,0,0,1,1.189.763,3.766,3.766,0,0,1,.8,1.185c.058.134.111.272.158.414l.033.1a4.923,4.923,0,0,1,.206,1.433v.506Z"/><path class="cls-2" d="M480.121,205.925h1.807l-4.36,6.575,4.087,5.115h-1.807l-3.428-4.3-1.132-1.413v5.709H473.77v-11.69h1.518v3.95l1.3,1.477Z"/><path class="cls-2" d="M432.873,173.853l-8.891-4.446a.256.256,0,0,0-.243.011.252.252,0,0,0-.118.213v11.854a.249.249,0,0,0,.138.224l8.775,4.387.115.058a.254.254,0,0,0,.113.027.261.261,0,0,0,.132-.037.252.252,0,0,0,.118-.213V174.076A.25.25,0,0,0,432.873,173.853Zm-8.373,7.632,8.012-4.039v8.078Zm-.379-11.45,8.391,4.2v2.655l-8.391,4.231Z"/><path class="cls-2" d="M420.871,167.925l-8.892-4.445a.248.248,0,0,0-.243.01.252.252,0,0,0-.118.213v11.855a.249.249,0,0,0,.138.223l8.775,4.388.115.058a.263.263,0,0,0,.113.026.254.254,0,0,0,.131-.037.25.25,0,0,0,.119-.213V168.149A.251.251,0,0,0,420.871,167.925Zm-8.374,7.633,8.012-4.039V179.6Zm-.379-11.451,8.391,4.2v2.655l-8.391,4.231Z"/><path class="cls-2" d="M450.728,182.742l-2.9-1.413v-8.58l2.825-1.413a.25.25,0,0,0,.139-.224v-2.8a.243.243,0,0,0,.074-.165.25.25,0,0,0-.139-.224l-32.674-16.3a.25.25,0,0,0-.223,0l-11.855,5.927-.008.007-.012,0a.222.222,0,0,0-.052.054c-.01.012-.023.02-.031.032a.252.252,0,0,0-.036.126v2.964a.25.25,0,0,0,.139.224l2.825,1.413v8.582l-2.825,1.412-.008.007-.012,0a.257.257,0,0,0-.053.056c-.009.011-.022.018-.03.031a.247.247,0,0,0-.036.126v2.964a.25.25,0,0,0,.139.223l32.6,16.3a.252.252,0,0,0,.223,0l11.854-5.928a.25.25,0,0,0,.139-.223v-2.8a.243.243,0,0,0,.074-.166A.25.25,0,0,0,450.728,182.742Zm-.434,3.034-11.355,5.678v-2.368l11.355-5.678Zm-43.647-13.182,2.155-1.077v2.155Zm43.375-4.464-11.3,5.649-32.078-16,11.295-5.647ZM406.338,173l2.6,1.3a.262.262,0,0,0,.112.026h.006a.248.248,0,0,0,.126-.036.252.252,0,0,0,.118-.213V162.222a.249.249,0,0,0-.138-.224l-2.826-1.413V158.18l32.1,16.051v2.405l-2.6-1.3a.25.25,0,0,0-.362.224v11.854h0l0,.009a.256.256,0,0,0,.033.116l0,.006c.007.011.02.016.028.025a.217.217,0,0,0,.053.056l.011,0,.008.008,2.826,1.413v2.405l-32.1-16.051Zm32.387,15.6-2.435-1.188.412-.206,10.879-5.438,2.435,1.186Zm8.6-7.266-3.149,1.575-8.2,4.1V175.962l2.6,1.3a.273.273,0,0,0,.069.014.23.23,0,0,0,.043.012l.008,0a.163.163,0,0,0,.03-.007.266.266,0,0,0,.074-.017h0l3.74-1.871L447.33,173Zm2.964-10.373-2.822,1.411h0l-8.529,4.266v-2.369l11.355-5.677Z"/></svg>