<svg id="Layer_1" data-name="Layer 1" xmlns="http://www.w3.org/2000/svg" width="302.227mm" height="121.252mm" viewBox="0 0 856.706 343.706"><defs><style>.cls-1{fill:none;}.cls-2{fill:#ffdcdc;}.cls-2,.cls-3{stroke:#f94646;stroke-width:0.5px;}.cls-3{fill:#ffa9a9;}</style></defs><title>CB70_0.1_Plate</title><rect class="cls-1" x="232.581" y="205.796" width="39.685" height="39.685"/><rect class="cls-1" x="205.581" y="151.796" width="39.685" height="39.685"/><rect class="cls-1" x="178.581" y="97.796" width="39.685" height="39.685"/><rect class="cls-1" x="151.581" y="151.796" width="39.685" height="39.685"/><rect class="cls-1" x="178.581" y="205.796" width="39.685" height="39.685"/><rect class="cls-1" x="124.581" y="97.796" width="39.685" height="39.685"/><rect class="cls-1" x="286.581" y="97.796" width="39.685" height="39.685"/><rect class="cls-1" x="286.581" y="205.796" width="39.685" height="39.685"/><rect class="cls-1" x="313.581" y="151.796" width="39.685" height="39.685"/><rect class="cls-1" x="259.581" y="151.796" width="39.685" height="39.685"/><rect class="cls-1" x="232.581" y="97.796" width="39.685" height="39.685"/><rect class="cls-1" x="70.581" y="97.796" width="39.685" height="39.685"/><rect class="cls-1" x="259.581" y="43.793" width="39.685" height="39.688"/><rect class="cls-1" x="313.581" y="43.793" width="39.685" height="39.688"/><rect class="cls-1" x="367.581" y="43.793" width="39.685" height="39.688"/><path class="cls-1" d="M373.929,29.832a3.685,3.685,0,1,1,3.685-3.685A3.685,3.685,0,0,1,373.929,29.832Z"/><rect class="cls-1" x="421.581" y="43.793" width="39.685" height="39.688"/><rect class="cls-1" x="124.581" y="205.796" width="39.685" height="39.685"/><rect class="cls-1" x="340.581" y="205.796" width="39.685" height="39.685"/><rect class="cls-1" x="151.581" y="43.793" width="39.685" height="39.688"/><rect class="cls-1" x="205.581" y="43.793" width="39.685" height="39.688"/><rect class="cls-1" x="664.581" y="97.796" width="39.685" height="39.685"/><rect class="cls-1" x="664.581" y="205.796" width="39.685" height="39.685"/><rect class="cls-1" x="475.584" y="43.793" width="39.685" height="39.688"/><rect class="cls-1" x="637.584" y="151.796" width="39.685" height="39.685"/><rect class="cls-1" x="610.581" y="97.796" width="39.685" height="39.685"/><rect class="cls-1" x="340.581" y="97.796" width="39.685" height="39.685"/><rect class="cls-1" x="691.584" y="151.796" width="39.685" height="39.685"/><rect class="cls-1" x="745.581" y="151.796" width="39.688" height="39.685"/><rect class="cls-1" x="97.581" y="43.793" width="39.685" height="39.688"/><rect class="cls-1" x="583.584" y="151.796" width="39.685" height="39.685"/><rect class="cls-1" x="718.581" y="97.796" width="39.685" height="39.685"/><rect class="cls-1" x="70.581" y="205.796" width="39.685" height="39.685"/><rect class="cls-1" x="610.581" y="205.796" width="39.685" height="39.685"/><rect class="cls-1" x="421.581" y="151.796" width="39.685" height="39.685"/><rect class="cls-1" x="394.581" y="97.796" width="39.685" height="39.685"/><rect class="cls-1" x="448.581" y="205.796" width="39.688" height="39.685"/><rect class="cls-1" x="394.581" y="205.796" width="39.685" height="39.685"/><rect class="cls-1" x="448.581" y="97.796" width="39.688" height="39.685"/><rect class="cls-1" x="367.581" y="151.796" width="39.685" height="39.685"/><rect class="cls-1" x="556.581" y="97.796" width="39.685" height="39.685"/><rect class="cls-1" x="556.581" y="205.796" width="39.685" height="39.685"/><rect class="cls-1" x="529.584" y="151.796" width="39.685" height="39.685"/><rect class="cls-1" x="502.584" y="205.796" width="39.685" height="39.685"/><rect class="cls-1" x="475.584" y="151.796" width="39.685" height="39.685"/><rect class="cls-1" x="502.584" y="97.796" width="39.685" height="39.685"/><rect class="cls-1" x="745.581" y="259.796" width="39.688" height="39.685"/><rect class="cls-1" x="637.584" y="259.796" width="39.685" height="39.685"/><rect class="cls-1" x="583.584" y="259.796" width="39.685" height="39.685"/><rect class="cls-1" x="529.584" y="43.793" width="39.685" height="39.688"/><rect class="cls-1" x="259.581" y="259.796" width="39.685" height="39.685"/><rect class="cls-1" x="529.584" y="259.796" width="39.685" height="39.685"/><rect class="cls-1" x="151.581" y="259.796" width="39.685" height="39.685"/><rect class="cls-1" x="205.581" y="259.796" width="39.685" height="39.685"/><rect class="cls-1" x="43.581" y="259.796" width="39.685" height="39.685"/><rect class="cls-1" x="43.581" y="43.793" width="39.685" height="39.688"/><rect class="cls-1" x="97.581" y="259.796" width="39.685" height="39.685"/><rect class="cls-1" x="691.584" y="259.796" width="39.685" height="39.685"/><rect class="cls-1" x="745.581" y="43.793" width="39.688" height="39.688"/><rect class="cls-1" x="691.584" y="43.793" width="39.685" height="39.688"/><rect class="cls-1" x="583.584" y="43.793" width="39.685" height="39.688"/><rect class="cls-1" x="772.581" y="97.796" width="39.688" height="39.685"/><rect class="cls-1" x="637.584" y="43.793" width="39.685" height="39.688"/><path class="cls-2" d="M14.173,25.515V318.192l.037.89.1.884.173.873.241.859.309.834.371.808.437.776.493.743.553.7.6.655.655.6.7.553.742.493.777.436.808.372.833.309.859.241.873.172.885.1.887.037,805.68,0,.89-.034.884-.1.873-.172.859-.241.834-.309.808-.372.776-.436.743-.493.7-.553.655-.6.6-.655.553-.7.493-.743.436-.776.372-.808.309-.834.241-.859.172-.873.105-.884.037-.89,0-292.677-.034-.89-.105-.885-.172-.873-.241-.859-.309-.833-.372-.808-.436-.777-.493-.742-.553-.7-.6-.655-.655-.6-.7-.553-.743-.493-.776-.437-.808-.371-.834-.309-.859-.241-.873-.173-.884-.1-.89-.037-805.68,0-.887.034-.885.1-.873.173-.859.241-.833.309-.808.371-.777.437-.742.493-.7.553-.655.6-.6.655-.553.7-.493.742-.437.777-.371.808-.309.833-.241.859-.173.873-.1.885ZM137.266,83.481H97.581V43.793h39.685Zm-27,122.315v39.685H70.581V205.8Zm608.315-68.315V97.8h39.685v39.685ZM785.269,151.8v39.685H745.581V151.8Zm-54,39.685H691.584V151.8h39.685Zm-66.688-54V97.8h39.685v39.685Zm39.685,108H664.581V205.8h39.685Zm108,0H718.581V205.8h93.686Zm-174.683-54V151.8h39.685v39.685Zm-27-54V97.8h39.685v39.685Zm39.685,108H610.581V205.8h39.685Zm-66.682-54V151.8h39.685v39.685Zm-27-54V97.8h39.685v39.685Zm39.685,108H556.581V205.8h39.685Zm-66.682-54V151.8h39.685v39.685Zm-27-54V97.8h39.685v39.685Zm39.685,108H502.584V205.8h39.685Zm-66.685-54V151.8h39.685v39.685Zm-27-54V97.8h39.688v39.685Zm39.688,108H448.581V205.8h39.688Zm-66.688-54V151.8h39.685v39.685Zm-27-54V97.8h39.685v39.685Zm39.685,108H394.581V205.8h39.685Zm-66.685-54V151.8h39.685v39.685Zm-27-54V97.8h39.685v39.685Zm39.685,108H340.581V205.8h39.685Zm-66.685-54V151.8h39.685v39.685Zm-27-54V97.8h39.685v39.685Zm39.685,108H286.581V205.8h39.685Zm-66.685-54V151.8h39.685v39.685Zm-27-54V97.8h39.685v39.685Zm39.685,108H232.581V205.8h39.685Zm-66.685-54V151.8h39.685v39.685Zm-27-54V97.8h39.685v39.685Zm39.685,108H178.581V205.8h39.685Zm-66.685-54V151.8h39.685v39.685Zm-108,0V151.8h93.685v39.685Zm81-54V97.8h39.685v39.685Zm39.685,108H124.581V205.8h39.685ZM70.581,97.8h39.685v39.685H70.581Zm91.38-71.649a4.039,4.039,0,1,1-4.039-4.039A4.039,4.039,0,0,1,161.961,26.147Zm29.3,57.334H151.581V43.793h39.685Zm54,0H205.581V43.793h39.685Zm24.7-57.334a4.04,4.04,0,1,1-4.039-4.039A4.04,4.04,0,0,1,269.97,26.147Zm29.3,57.334H259.581V43.793h39.685Zm54,0H313.581V43.793h39.685Zm24.7-57.334a4.04,4.04,0,1,1-4.04-4.039A4.04,4.04,0,0,1,377.969,26.147Zm29.3,57.334H367.581V43.793h39.685Zm54,0H421.581V43.793h39.685Zm24.7-57.334a4.04,4.04,0,1,1-4.039-4.039A4.039,4.039,0,0,1,485.967,26.147Zm29.3,57.334H475.584V43.793h39.685Zm54,0H529.584V43.793h39.685Zm24.7-57.334a4.04,4.04,0,1,1-4.04-4.039A4.04,4.04,0,0,1,593.966,26.147Zm29.3,57.334H583.584V43.793h39.685Zm54,0H637.584V43.793h39.685Zm24.7-57.334a4.039,4.039,0,1,1-4.039-4.039A4.039,4.039,0,0,1,701.964,26.147Zm29.3,57.334H691.584V43.793h39.685Zm54,0H745.581V43.793h39.688Zm40.606,233.648a4.04,4.04,0,1,1,4.04,4.04A4.039,4.039,0,0,1,825.875,317.129Zm0-91.491a4.04,4.04,0,1,1,4.04,4.04A4.039,4.039,0,0,1,825.875,225.638Zm0-108a4.04,4.04,0,1,1,4.04,4.04A4.039,4.039,0,0,1,825.875,117.638Zm0-91.491a4.04,4.04,0,1,1,4.04,4.04A4.039,4.039,0,0,1,825.875,26.147ZM812.269,137.481H772.581V97.8h39.688ZM745.581,259.8h39.688v39.685H745.581Zm-51.7,57.333a4.039,4.039,0,1,1,4.039,4.04A4.039,4.039,0,0,1,693.886,317.129Zm-2.3-57.333h39.685v39.685H691.584Zm-54,0h39.685v39.685H637.584Zm-51.7,57.333a4.04,4.04,0,1,1,4.039,4.04A4.039,4.039,0,0,1,585.887,317.129Zm-2.3-57.333h39.685v39.685H583.584Zm-54,0h39.685v39.685H529.584Zm-108,0h93.685v39.685H421.584Zm-108,0h93.688v39.685H313.581Zm164.307,57.333a4.04,4.04,0,1,1,4.04,4.04A4.039,4.039,0,0,1,477.888,317.129Zm-108,0a4.04,4.04,0,1,1,4.039,4.04A4.039,4.039,0,0,1,369.89,317.129Zm-108,0a4.04,4.04,0,1,1,4.04,4.04A4.039,4.039,0,0,1,261.891,317.129Zm-2.31-57.333h39.685v39.685H259.581Zm-54,0h39.685v39.685H205.581Zm-51.7,57.333a4.039,4.039,0,1,1,4.039,4.04A4.039,4.039,0,0,1,153.883,317.129Zm-2.3-57.333h39.685v39.685H151.581Zm-54,0h39.685v39.685H97.581Zm-54,0H83.266v39.685H43.581Zm0-216H83.266V83.481H43.581ZM21.893,317.129a4.04,4.04,0,1,1,4.039,4.04A4.039,4.039,0,0,1,21.893,317.129Zm0-91.491a4.04,4.04,0,1,1,4.039,4.04A4.039,4.039,0,0,1,21.893,225.638Zm0-108a4.04,4.04,0,1,1,4.039,4.04A4.039,4.039,0,0,1,21.893,117.638Zm0-91.491a4.04,4.04,0,1,1,4.039,4.04A4.039,4.039,0,0,1,21.893,26.147Z"/><rect class="cls-3" x="758.695" y="41.168" width="14.245" height="2.841" transform="translate(1531.635 85.176) rotate(-180)"/><rect class="cls-3" x="758.695" y="83.696" width="14.245" height="2.841" transform="translate(1531.635 170.234) rotate(-180)"/><rect class="cls-3" x="704.728" y="41.168" width="14.245" height="2.841" transform="translate(1423.702 85.176) rotate(-180)"/><rect class="cls-3" x="704.728" y="83.696" width="14.245" height="2.841" transform="translate(1423.702 170.234) rotate(-180)"/><rect class="cls-3" x="650.761" y="41.168" width="14.245" height="2.841" transform="translate(1315.768 85.176) rotate(-180)"/><rect class="cls-3" x="650.761" y="83.696" width="14.245" height="2.841" transform="translate(1315.768 170.234) rotate(-180)"/><rect class="cls-3" x="596.794" y="41.168" width="14.245" height="2.841" transform="translate(1207.834 85.176) rotate(-180)"/><rect class="cls-3" x="596.794" y="83.696" width="14.245" height="2.841" transform="translate(1207.834 170.234) rotate(-180)"/><rect class="cls-3" x="542.827" y="41.168" width="14.245" height="2.841" transform="translate(1099.9 85.176) rotate(-180)"/><rect class="cls-3" x="542.827" y="83.696" width="14.245" height="2.841" transform="translate(1099.9 170.234) rotate(-180)"/><rect class="cls-3" x="488.861" y="41.168" width="14.245" height="2.841" transform="translate(991.966 85.176) rotate(-180)"/><rect class="cls-3" x="488.861" y="83.696" width="14.245" height="2.841" transform="translate(991.966 170.234) rotate(-180)"/><rect class="cls-3" x="434.894" y="41.168" width="14.245" height="2.841" transform="translate(884.033 85.176) rotate(-180)"/><rect class="cls-3" x="434.894" y="83.696" width="14.245" height="2.841" transform="translate(884.033 170.234) rotate(-180)"/><rect class="cls-3" x="380.927" y="41.168" width="14.245" height="2.841" transform="translate(776.099 85.176) rotate(-180)"/><rect class="cls-3" x="380.927" y="83.696" width="14.245" height="2.841" transform="translate(776.099 170.234) rotate(-180)"/><rect class="cls-3" x="326.96" y="41.168" width="14.245" height="2.841" transform="translate(668.165 85.176) rotate(-180)"/><rect class="cls-3" x="326.96" y="83.696" width="14.245" height="2.841" transform="translate(668.165 170.234) rotate(-180)"/><rect class="cls-3" x="272.993" y="41.168" width="14.245" height="2.841" transform="translate(560.231 85.176) rotate(-180)"/><rect class="cls-3" x="272.993" y="83.696" width="14.245" height="2.841" transform="translate(560.231 170.234) rotate(-180)"/><rect class="cls-3" x="219.026" y="41.168" width="14.245" height="2.841" transform="translate(452.297 85.176) rotate(-180)"/><rect class="cls-3" x="219.026" y="83.696" width="14.245" height="2.841" transform="translate(452.297 170.234) rotate(-180)"/><rect class="cls-3" x="165.059" y="41.168" width="14.245" height="2.841" transform="translate(344.364 85.176) rotate(-180)"/><rect class="cls-3" x="165.059" y="83.696" width="14.245" height="2.841" transform="translate(344.364 170.234) rotate(-180)"/><rect class="cls-3" x="111.092" y="41.168" width="14.245" height="2.841" transform="translate(236.43 85.176) rotate(-180)"/><rect class="cls-3" x="111.092" y="83.696" width="14.245" height="2.841" transform="translate(236.43 170.234) rotate(-180)"/><rect class="cls-3" x="57.125" y="41.168" width="14.245" height="2.841" transform="translate(128.496 85.176) rotate(-180)"/><rect class="cls-3" x="57.125" y="83.696" width="14.245" height="2.841" transform="translate(128.496 170.234) rotate(-180)"/><rect class="cls-3" x="83.73" y="95.169" width="14.245" height="2.841" transform="translate(181.705 193.178) rotate(-180)"/><rect class="cls-3" x="83.73" y="137.697" width="14.245" height="2.841" transform="translate(181.705 278.235) rotate(-180)"/><rect class="cls-3" x="137.714" y="95.169" width="14.245" height="2.841" transform="translate(289.674 193.178) rotate(-180)"/><rect class="cls-3" x="137.714" y="137.697" width="14.245" height="2.841" transform="translate(289.674 278.235) rotate(-180)"/><rect class="cls-3" x="191.699" y="95.169" width="14.245" height="2.841" transform="translate(397.643 193.178) rotate(-180)"/><rect class="cls-3" x="191.699" y="137.697" width="14.245" height="2.841" transform="translate(397.643 278.235) rotate(-180)"/><rect class="cls-3" x="245.683" y="95.169" width="14.245" height="2.841" transform="translate(505.612 193.178) rotate(-180)"/><rect class="cls-3" x="245.683" y="137.697" width="14.245" height="2.841" transform="translate(505.612 278.235) rotate(-180)"/><rect class="cls-3" x="299.668" y="95.169" width="14.245" height="2.841" transform="translate(613.581 193.178) rotate(-180)"/><rect class="cls-3" x="299.668" y="137.697" width="14.245" height="2.841" transform="translate(613.581 278.235) rotate(-180)"/><rect class="cls-3" x="353.653" y="95.169" width="14.245" height="2.841" transform="translate(721.551 193.178) rotate(-180)"/><rect class="cls-3" x="353.653" y="137.697" width="14.245" height="2.841" transform="translate(721.551 278.235) rotate(-180)"/><rect class="cls-3" x="407.637" y="95.169" width="14.245" height="2.841" transform="translate(829.52 193.178) rotate(-180)"/><rect class="cls-3" x="407.637" y="137.697" width="14.245" height="2.841" transform="translate(829.52 278.235) rotate(-180)"/><rect class="cls-3" x="461.622" y="95.169" width="14.245" height="2.841" transform="translate(937.489 193.178) rotate(-180)"/><rect class="cls-3" x="461.622" y="137.697" width="14.245" height="2.841" transform="translate(937.489 278.235) rotate(-180)"/><rect class="cls-3" x="515.606" y="95.169" width="14.245" height="2.841" transform="translate(1045.458 193.178) rotate(-180)"/><rect class="cls-3" x="515.606" y="137.697" width="14.245" height="2.841" transform="translate(1045.458 278.235) rotate(-180)"/><rect class="cls-3" x="569.591" y="95.169" width="14.245" height="2.841" transform="translate(1153.427 193.178) rotate(-180)"/><rect class="cls-3" x="569.591" y="137.697" width="14.245" height="2.841" transform="translate(1153.427 278.235) rotate(-180)"/><rect class="cls-3" x="623.575" y="95.169" width="14.245" height="2.841" transform="translate(1261.396 193.178) rotate(-180)"/><rect class="cls-3" x="623.575" y="137.697" width="14.245" height="2.841" transform="translate(1261.396 278.235) rotate(-180)"/><rect class="cls-3" x="677.56" y="95.169" width="14.245" height="2.841" transform="translate(1369.365 193.178) rotate(-180)"/><rect class="cls-3" x="677.56" y="137.697" width="14.245" height="2.841" transform="translate(1369.365 278.235) rotate(-180)"/><rect class="cls-3" x="731.544" y="95.169" width="14.245" height="2.841" transform="translate(1477.334 193.178) rotate(-180)"/><rect class="cls-3" x="731.544" y="137.697" width="14.245" height="2.841" transform="translate(1477.334 278.235) rotate(-180)"/><rect class="cls-3" x="785.529" y="95.169" width="14.245" height="2.841" transform="translate(1585.303 193.178) rotate(-180)"/><rect class="cls-3" x="785.529" y="137.697" width="14.245" height="2.841" transform="translate(1585.303 278.235) rotate(-180)"/><rect class="cls-3" x="758.731" y="149.169" width="14.245" height="2.841" transform="translate(1531.708 301.179) rotate(-180)"/><rect class="cls-3" x="758.731" y="191.698" width="14.245" height="2.841" transform="translate(1531.708 386.236) rotate(-180)"/><rect class="cls-3" x="704.733" y="149.169" width="14.245" height="2.841" transform="translate(1423.711 301.179) rotate(-180)"/><rect class="cls-3" x="704.733" y="191.698" width="14.245" height="2.841" transform="translate(1423.711 386.236) rotate(-180)"/><rect class="cls-3" x="650.734" y="149.169" width="14.245" height="2.841" transform="translate(1315.714 301.179) rotate(-180)"/><rect class="cls-3" x="650.734" y="191.698" width="14.245" height="2.841" transform="translate(1315.714 386.236) rotate(-180)"/><rect class="cls-3" x="596.735" y="149.169" width="14.245" height="2.841" transform="translate(1207.716 301.179) rotate(-180)"/><rect class="cls-3" x="596.735" y="191.698" width="14.245" height="2.841" transform="translate(1207.716 386.236) rotate(-180)"/><rect class="cls-3" x="542.737" y="149.169" width="14.245" height="2.841" transform="translate(1099.719 301.179) rotate(-180)"/><rect class="cls-3" x="542.737" y="191.698" width="14.245" height="2.841" transform="translate(1099.719 386.236) rotate(-180)"/><rect class="cls-3" x="488.738" y="149.169" width="14.245" height="2.841" transform="translate(991.722 301.179) rotate(-180)"/><rect class="cls-3" x="488.738" y="191.698" width="14.245" height="2.841" transform="translate(991.722 386.236) rotate(-180)"/><rect class="cls-3" x="434.74" y="149.169" width="14.245" height="2.841" transform="translate(883.725 301.179) rotate(-180)"/><rect class="cls-3" x="434.74" y="191.698" width="14.245" height="2.841" transform="translate(883.725 386.236) rotate(-180)"/><rect class="cls-3" x="380.741" y="149.169" width="14.245" height="2.841" transform="translate(775.728 301.179) rotate(-180)"/><rect class="cls-3" x="380.741" y="191.698" width="14.245" height="2.841" transform="translate(775.728 386.236) rotate(-180)"/><rect class="cls-3" x="326.742" y="149.169" width="14.245" height="2.841" transform="translate(667.73 301.179) rotate(-180)"/><rect class="cls-3" x="326.742" y="191.698" width="14.245" height="2.841" transform="translate(667.73 386.236) rotate(-180)"/><rect class="cls-3" x="272.744" y="149.169" width="14.245" height="2.841" transform="translate(559.733 301.179) rotate(-180)"/><rect class="cls-3" x="272.744" y="191.698" width="14.245" height="2.841" transform="translate(559.733 386.236) rotate(-180)"/><rect class="cls-3" x="218.745" y="149.169" width="14.245" height="2.841" transform="translate(451.736 301.179) rotate(-180)"/><rect class="cls-3" x="218.745" y="191.698" width="14.245" height="2.841" transform="translate(451.736 386.236) rotate(-180)"/><rect class="cls-3" x="164.747" y="149.169" width="14.245" height="2.841" transform="translate(343.739 301.179) rotate(-180)"/><rect class="cls-3" x="164.747" y="191.698" width="14.245" height="2.841" transform="translate(343.739 386.236) rotate(-180)"/><rect class="cls-3" x="110.748" y="191.698" width="14.245" height="2.841" transform="translate(235.742 386.236) rotate(-180)"/><rect class="cls-3" x="83.73" y="191.698" width="14.245" height="2.841" transform="translate(181.705 386.236) rotate(-180)"/><rect class="cls-3" x="56.75" y="191.698" width="14.245" height="2.841" transform="translate(127.744 386.236) rotate(-180)"/><rect class="cls-3" x="83.713" y="203.169" width="14.245" height="2.841" transform="translate(181.671 409.179) rotate(-180)"/><rect class="cls-3" x="83.713" y="245.698" width="14.245" height="2.841" transform="translate(181.671 494.236) rotate(-180)"/><rect class="cls-3" x="137.714" y="203.169" width="14.245" height="2.841" transform="translate(289.674 409.179) rotate(-180)"/><rect class="cls-3" x="137.714" y="245.698" width="14.245" height="2.841" transform="translate(289.674 494.236) rotate(-180)"/><rect class="cls-3" x="191.716" y="203.169" width="14.245" height="2.841" transform="translate(397.677 409.179) rotate(-180)"/><rect class="cls-3" x="191.716" y="245.698" width="14.245" height="2.841" transform="translate(397.677 494.236) rotate(-180)"/><rect class="cls-3" x="245.717" y="203.169" width="14.245" height="2.841" transform="translate(505.68 409.179) rotate(-180)"/><rect class="cls-3" x="245.717" y="245.698" width="14.245" height="2.841" transform="translate(505.68 494.236) rotate(-180)"/><rect class="cls-3" x="299.719" y="203.169" width="14.245" height="2.841" transform="translate(613.682 409.179) rotate(-180)"/><rect class="cls-3" x="299.719" y="245.698" width="14.245" height="2.841" transform="translate(613.682 494.236) rotate(-180)"/><rect class="cls-3" x="353.72" y="203.169" width="14.245" height="2.841" transform="translate(721.685 409.179) rotate(-180)"/><rect class="cls-3" x="353.72" y="245.698" width="14.245" height="2.841" transform="translate(721.685 494.236) rotate(-180)"/><rect class="cls-3" x="407.721" y="203.169" width="14.245" height="2.841" transform="translate(829.688 409.179) rotate(-180)"/><rect class="cls-3" x="407.721" y="245.698" width="14.245" height="2.841" transform="translate(829.688 494.236) rotate(-180)"/><rect class="cls-3" x="461.723" y="203.169" width="14.245" height="2.841" transform="translate(937.691 409.179) rotate(-180)"/><rect class="cls-3" x="461.723" y="245.698" width="14.245" height="2.841" transform="translate(937.691 494.236) rotate(-180)"/><rect class="cls-3" x="515.724" y="203.169" width="14.245" height="2.841" transform="translate(1045.694 409.179) rotate(-180)"/><rect class="cls-3" x="515.724" y="245.698" width="14.245" height="2.841" transform="translate(1045.694 494.236) rotate(-180)"/><rect class="cls-3" x="569.726" y="203.169" width="14.245" height="2.841" transform="translate(1153.697 409.179) rotate(-180)"/><rect class="cls-3" x="569.726" y="245.698" width="14.245" height="2.841" transform="translate(1153.697 494.236) rotate(-180)"/><rect class="cls-3" x="623.727" y="203.169" width="14.245" height="2.841" transform="translate(1261.699 409.179) rotate(-180)"/><rect class="cls-3" x="623.727" y="245.698" width="14.245" height="2.841" transform="translate(1261.699 494.236) rotate(-180)"/><rect class="cls-3" x="677.728" y="203.169" width="14.245" height="2.841" transform="translate(1369.702 409.179) rotate(-180)"/><rect class="cls-3" x="677.728" y="245.698" width="14.245" height="2.841" transform="translate(1369.702 494.236) rotate(-180)"/><rect class="cls-3" x="731.73" y="245.698" width="14.245" height="2.841" transform="translate(1477.705 494.236) rotate(-180)"/><rect class="cls-3" x="785.731" y="245.698" width="14.245" height="2.841" transform="translate(1585.708 494.236) rotate(-180)"/><rect class="cls-3" x="758.731" y="245.698" width="14.245" height="2.841" transform="translate(1531.708 494.236) rotate(-180)"/><rect class="cls-3" x="758.695" y="257.169" width="14.245" height="2.841" transform="translate(1531.635 517.179) rotate(-180)"/><rect class="cls-3" x="758.695" y="299.698" width="14.245" height="2.841" transform="translate(1531.635 602.236) rotate(-180)"/><rect class="cls-3" x="704.728" y="257.169" width="14.245" height="2.841" transform="translate(1423.702 517.179) rotate(-180)"/><rect class="cls-3" x="704.728" y="299.698" width="14.245" height="2.841" transform="translate(1423.702 602.236) rotate(-180)"/><rect class="cls-3" x="650.761" y="257.169" width="14.245" height="2.841" transform="translate(1315.768 517.179) rotate(-180)"/><rect class="cls-3" x="650.761" y="299.698" width="14.245" height="2.841" transform="translate(1315.768 602.236) rotate(-180)"/><rect class="cls-3" x="596.794" y="257.169" width="14.245" height="2.841" transform="translate(1207.834 517.179) rotate(-180)"/><rect class="cls-3" x="596.794" y="299.698" width="14.245" height="2.841" transform="translate(1207.834 602.236) rotate(-180)"/><rect class="cls-3" x="542.827" y="257.169" width="14.245" height="2.841" transform="translate(1099.9 517.179) rotate(-180)"/><rect class="cls-3" x="542.827" y="299.698" width="14.245" height="2.841" transform="translate(1099.9 602.236) rotate(-180)"/><rect class="cls-3" x="488.861" y="299.698" width="14.245" height="2.841" transform="translate(991.966 602.236) rotate(-180)"/><rect class="cls-3" x="461.723" y="299.698" width="14.245" height="2.841" transform="translate(937.691 602.236) rotate(-180)"/><rect class="cls-3" x="434.894" y="299.698" width="14.245" height="2.841" transform="translate(884.033 602.236) rotate(-180)"/><rect class="cls-3" x="380.927" y="299.698" width="14.245" height="2.841" transform="translate(776.099 602.236) rotate(-180)"/><rect class="cls-3" x="353.72" y="299.698" width="14.245" height="2.841" transform="translate(721.685 602.236) rotate(-180)"/><rect class="cls-3" x="326.96" y="299.698" width="14.245" height="2.841" transform="translate(668.165 602.236) rotate(-180)"/><rect class="cls-3" x="314.027" y="248.539" width="93.67" height="11.473" transform="translate(721.725 508.55) rotate(-180)"/><rect class="cls-3" x="44.01" y="140.538" width="93.685" height="11.474" transform="translate(181.705 292.549) rotate(-180)"/><rect class="cls-3" x="422.302" y="248.539" width="93.396" height="11.473" transform="translate(938 508.55) rotate(-180)"/><rect class="cls-3" x="718.939" y="194.539" width="93.757" height="11.473" transform="translate(1531.635 400.55) rotate(-180)"/><rect class="cls-3" x="731.269" y="47.304" width="14.312" height="32.666" transform="translate(1476.85 127.274) rotate(-180)"/><rect class="cls-3" x="272.993" y="257.169" width="14.245" height="2.841" transform="translate(560.231 517.179) rotate(-180)"/><rect class="cls-3" x="272.993" y="299.698" width="14.245" height="2.841" transform="translate(560.231 602.236) rotate(-180)"/><rect class="cls-3" x="219.026" y="257.169" width="14.245" height="2.841" transform="translate(452.297 517.179) rotate(-180)"/><rect class="cls-3" x="219.026" y="299.698" width="14.245" height="2.841" transform="translate(452.297 602.236) rotate(-180)"/><rect class="cls-3" x="165.059" y="257.169" width="14.245" height="2.841" transform="translate(344.364 517.179) rotate(-180)"/><rect class="cls-3" x="165.059" y="299.698" width="14.245" height="2.841" transform="translate(344.364 602.236) rotate(-180)"/><rect class="cls-3" x="111.092" y="257.169" width="14.245" height="2.841" transform="translate(236.43 517.179) rotate(-180)"/><rect class="cls-3" x="111.092" y="299.698" width="14.245" height="2.841" transform="translate(236.43 602.236) rotate(-180)"/><rect class="cls-3" x="57.125" y="257.169" width="14.245" height="2.841" transform="translate(128.496 517.179) rotate(-180)"/><rect class="cls-3" x="57.125" y="299.698" width="14.245" height="2.841" transform="translate(128.496 602.236) rotate(-180)"/></svg>