<svg id="Layer_1" data-name="Layer 1" xmlns="http://www.w3.org/2000/svg" width="302.227mm" height="121.252mm" viewBox="0 0 856.706 343.706"><defs><style>.cls-1{fill:#ffdcdc;stroke:#f94646;stroke-width:0.5px;}</style></defs><title>CB70_0.1_Plate</title><path class="cls-1" d="M822.58,110.192h0l0,28.354a8.514,8.514,0,0,1-8.5,8.5h-9.3l.006,0h-4.562l-1.732,0a2.837,2.837,0,0,0-2.829,2.665v43.143a2.839,2.839,0,0,0,2.724,2.662h15.7v0a8.515,8.515,0,0,1,8.5,8.5l0,42.654v.733l-.041.074a8.516,8.516,0,0,1-8.467,7.7H798.485a2.837,2.837,0,0,0-2.829,2.665v.165l0,43.091a8.514,8.514,0,0,1-8.5,8.5H783.1v0H43.054l-.431,0a8.514,8.514,0,0,1-8.5-8.5V258.735a8.514,8.514,0,0,1,8.5-8.5h15.6a2.838,2.838,0,0,0,2.832-2.834v-42.8a2.838,2.838,0,0,0-2.833-2.834H42.632a8.516,8.516,0,0,1-8.509-8.5V150.593a8.516,8.516,0,0,1,8.5-8.5h15.6a2.838,2.838,0,0,0,2.832-2.834v-42.8a2.839,2.839,0,0,0-2.833-2.835H42.624a8.514,8.514,0,0,1-8.5-8.5V42.589a8.5,8.5,0,0,1,8.5-8.5H787.147a8.462,8.462,0,0,1,6.388,2.89,8.9,8.9,0,0,1,2.116,5.913v1.116H831.2l.89-.037.884-.1.873-.173.859-.241.833-.309.808-.371.777-.437.743-.493.7-.552.655-.6.6-.655.552-.7.494-.743.436-.777.371-.808.309-.833.241-.859.173-.873.105-.884.031-.819V25.515l-.034-.89-.105-.885-.172-.873-.241-.859-.309-.833-.372-.808-.436-.777-.493-.742-.553-.7-.6-.655-.655-.6-.7-.553-.743-.493-.776-.437-.808-.371-.834-.309-.859-.241-.873-.173-.884-.1-.89-.037-805.68,0-.887.034-.885.1-.873.173-.859.241-.833.309-.808.371-.777.437-.742.493-.7.553-.655.6-.6.655-.553.7-.493.742-.437.777-.371.808-.309.833-.241.859-.173.873-.1.885-.037.89V318.192l.037.89.1.884.173.873.241.859.309.834.371.808.437.776.493.743.553.7.6.655.655.6.7.553.742.493.777.436.808.372.833.309.859.241.873.172.885.1.887.037,805.68,0,.89-.034.884-.1.873-.172.859-.241.834-.309.808-.372.776-.436.743-.493.7-.553.655-.6.6-.655.553-.7.493-.743.436-.776.372-.808.309-.834.241-.859.172-.873.105-.884.037-.89,0-216.672-.032-.834-.105-.884-.173-.873-.241-.859-.309-.833-.371-.808-.436-.777-.494-.743-.552-.7-.6-.655-.655-.6-.7-.553-.743-.493-.777-.437-.808-.371-.833-.309-.859-.241-.873-.173-.884-.1-.89-.037h0a8.613,8.613,0,0,0-8.614,8.611ZM161.961,26.147a4.039,4.039,0,1,1-4.039-4.039A4.039,4.039,0,0,1,161.961,26.147Zm108.009,0a4.04,4.04,0,1,1-4.039-4.039A4.04,4.04,0,0,1,269.97,26.147Zm108,0a4.04,4.04,0,1,1-4.04-4.039A4.04,4.04,0,0,1,377.969,26.147Zm108,0a4.04,4.04,0,1,1-4.039-4.039A4.039,4.039,0,0,1,485.967,26.147Zm108,0a4.04,4.04,0,1,1-4.04-4.039A4.04,4.04,0,0,1,593.966,26.147Zm108,0a4.039,4.039,0,1,1-4.039-4.039A4.039,4.039,0,0,1,701.964,26.147ZM825.875,317.129a4.04,4.04,0,1,1,4.04,4.04A4.039,4.039,0,0,1,825.875,317.129Zm0-91.491a4.04,4.04,0,1,1,4.04,4.04A4.039,4.039,0,0,1,825.875,225.638Zm0-108a4.04,4.04,0,1,1,4.04,4.04A4.039,4.039,0,0,1,825.875,117.638Zm0-91.491a4.04,4.04,0,1,1,4.04,4.04A4.039,4.039,0,0,1,825.875,26.147ZM693.886,317.129a4.039,4.039,0,1,1,4.039,4.04A4.039,4.039,0,0,1,693.886,317.129Zm-108,0a4.04,4.04,0,1,1,4.039,4.04A4.039,4.039,0,0,1,585.887,317.129Zm-108,0a4.04,4.04,0,1,1,4.04,4.04A4.039,4.039,0,0,1,477.888,317.129Zm-108,0a4.04,4.04,0,1,1,4.039,4.04A4.039,4.039,0,0,1,369.89,317.129Zm-108,0a4.04,4.04,0,1,1,4.04,4.04A4.039,4.039,0,0,1,261.891,317.129Zm-108.008,0a4.039,4.039,0,1,1,4.039,4.04A4.039,4.039,0,0,1,153.883,317.129Zm-131.99,0a4.04,4.04,0,1,1,4.039,4.04A4.039,4.039,0,0,1,21.893,317.129Zm0-91.491a4.04,4.04,0,1,1,4.039,4.04A4.039,4.039,0,0,1,21.893,225.638Zm0-108a4.04,4.04,0,1,1,4.039,4.04A4.039,4.039,0,0,1,21.893,117.638Zm0-91.491a4.04,4.04,0,1,1,4.039,4.04A4.039,4.039,0,0,1,21.893,26.147Z"/><path class="cls-1" d="M14.313,110.3h0"/></svg>