<?xml version="1.0" encoding="utf-8"?>
<!-- Generator: Adobe Illustrator 24.1.0, SVG Export Plug-In . SVG Version: 6.00 Build 0)  -->
<svg version="1.1" id="Layer_1" xmlns="http://www.w3.org/2000/svg" xmlns:xlink="http://www.w3.org/1999/xlink" x="0px" y="0px"
	 viewBox="0 0 856.7 343.7" style="enable-background:new 0 0 856.7 343.7;" xml:space="preserve">
<style type="text/css">
	.st0{fill:#FFDCDC;stroke:#F94646;stroke-width:0.5;}
</style>
<path class="st0" d="M14.2,25.5v292.7l0,0.9l0.1,0.9l0.2,0.9l0.2,0.9l0.3,0.8l0.4,0.8l0.4,0.8l0.5,0.7l0.6,0.7l0.6,0.7l0.7,0.6
	l0.7,0.6l0.7,0.5l0.8,0.4l0.8,0.4L22,329l0.9,0.2l0.9,0.2l0.9,0.1l0.9,0h805.7l0.9,0l0.9-0.1l0.9-0.2l0.9-0.2l0.8-0.3l0.8-0.4
	l0.8-0.4l0.7-0.5l0.7-0.6l0.7-0.6l0.6-0.7l0.6-0.7l0.5-0.7l0.4-0.8l0.4-0.8l0.3-0.8l0.2-0.9l0.2-0.9l0.1-0.9l0-0.9V101.5l0-0.8
	l-0.1-0.9l-0.2-0.9l-0.2-0.9l-0.3-0.8l-0.4-0.8l-0.4-0.8l-0.5-0.7l-0.6-0.7l-0.6-0.7l-0.6-0.5l-0.1-0.1l-0.7-0.6l-0.7-0.5l-0.8-0.4
	l-0.8-0.4l-0.8-0.3l-0.9-0.2l-0.9-0.2l-0.9-0.1l-0.9,0l-32.8,0c-3.2,0-5.8-2.6-5.8-5.8v-3.8c0-0.4-0.4-0.8-0.8-0.8h-32.6
	c-0.9,0-1.7-0.8-1.7-1.7c0,0,0,0,0,0V50.5c0-0.9,0.8-1.7,1.7-1.7c0,0,0,0,0,0H792c0.3,0,0.6-0.2,0.7-0.6c0.3-2.4,2.3-4.2,4.7-4.2
	h33.8l0.9,0l0.9-0.1l0.9-0.2l0.9-0.2l0.8-0.3l0.8-0.4l0.8-0.4l0.7-0.5l0.7-0.6l0.7-0.6l0.6-0.7l0.6-0.7l0.5-0.7l0.4-0.8l0.4-0.8
	l0.3-0.8l0.2-0.9l0.2-0.9l0-0.4l0.1-0.5l0-0.8v-7.2l0-0.9l-0.1-0.9l-0.2-0.9L842,22l-0.3-0.8l-0.4-0.8l-0.4-0.8l-0.5-0.7l-0.6-0.7
	l-0.6-0.7l-0.7-0.6l-0.7-0.6l-0.7-0.5l-0.8-0.4l-0.8-0.4l-0.8-0.3l-0.9-0.2l-0.9-0.2l-0.9-0.1l-0.9,0H25.5l-0.9,0l-0.9,0.1l-0.9,0.2
	L22,14.7L21.2,15l-0.8,0.4l-0.8,0.4l-0.7,0.5l-0.7,0.6l-0.7,0.6l-0.6,0.7l-0.6,0.7l-0.5,0.7l-0.4,0.8L15,21.2L14.7,22l-0.2,0.9
	l-0.2,0.9l-0.1,0.9L14.2,25.5z M709.7,63.2v16.9c0,0.9-0.8,1.7-1.7,1.7h-12.5c-0.9,0-1.7-0.8-1.7-1.7V63.2c0-0.9,0.8-1.7,1.7-1.7
	H708C708.9,61.5,709.7,62.3,709.7,63.2C709.7,63.2,709.7,63.2,709.7,63.2z M161.1,26.1c0,1.8-1.4,3.2-3.2,3.2
	c-1.8,0-3.2-1.4-3.2-3.2c0-1.8,1.4-3.2,3.2-3.2c0,0,0,0,0,0C159.7,23,161.1,24.4,161.1,26.1z M269.1,26.1c0,1.8-1.4,3.2-3.2,3.2
	c-1.8,0-3.2-1.4-3.2-3.2c0-1.8,1.4-3.2,3.2-3.2c0,0,0,0,0,0C267.7,23,269.1,24.4,269.1,26.1C269.1,26.1,269.1,26.1,269.1,26.1z
	 M377.1,26.1c0,1.8-1.4,3.2-3.2,3.2c-1.8,0-3.2-1.4-3.2-3.2c0-1.8,1.4-3.2,3.2-3.2c0,0,0,0,0,0C375.7,23,377.1,24.4,377.1,26.1
	L377.1,26.1z M485.1,26.1c0,1.8-1.4,3.2-3.2,3.2c-1.8,0-3.2-1.4-3.2-3.2c0-1.8,1.4-3.2,3.2-3.2c0,0,0,0,0,0
	C483.7,23,485.1,24.4,485.1,26.1L485.1,26.1z M593.1,26.1c0,1.8-1.4,3.2-3.2,3.2c-1.8,0-3.2-1.4-3.2-3.2c0-1.8,1.4-3.2,3.2-3.2
	c0,0,0,0,0,0C591.7,23,593.1,24.4,593.1,26.1L593.1,26.1z M701.1,26.1c0,1.8-1.4,3.2-3.2,3.2c-1.8,0-3.2-1.4-3.2-3.2
	c0-1.8,1.4-3.2,3.2-3.2c0,0,0,0,0,0C699.7,23,701.1,24.4,701.1,26.1L701.1,26.1z M826.7,317.1c0-1.8,1.4-3.2,3.2-3.2
	s3.2,1.4,3.2,3.2c0,1.8-1.4,3.2-3.2,3.2l0,0C828.2,320.3,826.7,318.9,826.7,317.1C826.7,317.1,826.7,317.1,826.7,317.1L826.7,317.1z
	 M826.7,225.6c0-1.8,1.4-3.2,3.2-3.2c1.8,0,3.2,1.4,3.2,3.2c0,1.8-1.4,3.2-3.2,3.2l0,0C828.2,228.8,826.7,227.4,826.7,225.6
	C826.7,225.6,826.7,225.6,826.7,225.6L826.7,225.6z M826.7,117.6c0-1.8,1.4-3.2,3.2-3.2c1.8,0,3.2,1.4,3.2,3.2
	c0,1.8-1.4,3.2-3.2,3.2l0,0C828.2,120.8,826.7,119.4,826.7,117.6C826.7,117.6,826.7,117.6,826.7,117.6L826.7,117.6z M826.7,26.1
	c0-1.8,1.4-3.2,3.2-3.2c1.8,0,3.2,1.4,3.2,3.2c0,1.8-1.4,3.2-3.2,3.2l0,0C828.2,29.3,826.7,27.9,826.7,26.1
	C826.7,26.1,826.7,26.1,826.7,26.1L826.7,26.1z M694.7,317.1c0-1.8,1.4-3.2,3.2-3.2c1.8,0,3.2,1.4,3.2,3.2c0,1.8-1.4,3.2-3.2,3.2
	l0,0C696.2,320.3,694.7,318.9,694.7,317.1C694.7,317.1,694.7,317.1,694.7,317.1z M586.7,317.1c0-1.8,1.4-3.2,3.2-3.2
	c1.8,0,3.2,1.4,3.2,3.2c0,1.8-1.4,3.2-3.2,3.2c0,0,0,0,0,0C588.2,320.3,586.7,318.9,586.7,317.1L586.7,317.1z M478.7,317.1
	c0-1.8,1.4-3.2,3.2-3.2c1.8,0,3.2,1.4,3.2,3.2c0,1.8-1.4,3.2-3.2,3.2C480.2,320.3,478.7,318.9,478.7,317.1L478.7,317.1z
	 M370.7,317.1c0-1.8,1.4-3.2,3.2-3.2c1.8,0,3.2,1.4,3.2,3.2c0,1.8-1.4,3.2-3.2,3.2C372.2,320.3,370.7,318.9,370.7,317.1L370.7,317.1
	z M262.7,317.1c0-1.8,1.4-3.2,3.2-3.2c1.8,0,3.2,1.4,3.2,3.2c0,1.8-1.4,3.2-3.2,3.2C264.2,320.3,262.7,318.9,262.7,317.1
	L262.7,317.1z M154.7,317.1c0-1.8,1.4-3.2,3.2-3.2c1.8,0,3.2,1.4,3.2,3.2c0,1.8-1.4,3.2-3.2,3.2
	C156.2,320.3,154.7,318.9,154.7,317.1L154.7,317.1z M22.7,317.1c0-1.8,1.4-3.2,3.2-3.2s3.2,1.4,3.2,3.2c0,1.8-1.4,3.2-3.2,3.2
	c0,0,0,0,0,0C24.2,320.3,22.7,318.9,22.7,317.1L22.7,317.1z M22.7,225.6c0-1.8,1.4-3.2,3.2-3.2s3.2,1.4,3.2,3.2
	c0,1.8-1.4,3.2-3.2,3.2c0,0,0,0,0,0C24.2,228.8,22.7,227.4,22.7,225.6L22.7,225.6z M22.7,117.6c0-1.8,1.4-3.2,3.2-3.2
	s3.2,1.4,3.2,3.2c0,1.8-1.4,3.2-3.2,3.2c0,0,0,0,0,0C24.2,120.8,22.7,119.4,22.7,117.6L22.7,117.6z M22.7,26.1
	c0-1.8,1.4-3.2,3.2-3.2s3.2,1.4,3.2,3.2s-1.4,3.2-3.2,3.2c0,0,0,0,0,0C24.2,29.3,22.7,27.9,22.7,26.1L22.7,26.1z"/>
</svg>
