G04 #@! TF.GenerationSoftware,KiCad,Pcbnew,(5.1.5-0-10_14)*
G04 #@! TF.CreationDate,2019-12-14T19:49:10-08:00*
G04 #@! TF.ProjectId,Planck_S_01,506c616e-636b-45f5-935f-30312e6b6963,rev?*
G04 #@! TF.SameCoordinates,Original*
G04 #@! TF.FileFunction,Profile,NP*
%FSLAX46Y46*%
G04 Gerber Fmt 4.6, Leading zero omitted, Abs format (unit mm)*
G04 Created by KiCad (PCBNEW (5.1.5-0-10_14)) date 2019-12-14 19:49:10*
%MOMM*%
%LPD*%
G04 APERTURE LIST*
%ADD10C,0.050000*%
G04 APERTURE END LIST*
D10*
X65550000Y-143300000D02*
G75*
G02X63550000Y-141300000I0J2000000D01*
G01*
X63550000Y-103050000D02*
G75*
G02X61550000Y-105050000I-2000000J0D01*
G01*
X63550000Y-87950000D02*
X63550000Y-103050000D01*
X54050000Y-107050000D02*
X54050000Y-122100000D01*
X54050000Y-107050000D02*
G75*
G02X56050000Y-105050000I2000000J0D01*
G01*
X61550000Y-105050000D02*
X56050000Y-105050000D01*
X63550000Y-126100000D02*
X63550000Y-141300000D01*
X63550000Y-126100000D02*
G75*
G03X61550000Y-124100000I-2000000J0D01*
G01*
X54050000Y-122100000D02*
G75*
G03X56050000Y-124100000I2000000J0D01*
G01*
X63550000Y-87950000D02*
G75*
G03X61550000Y-85950000I-2000000J0D01*
G01*
X56050000Y-124100000D02*
X61550000Y-124100000D01*
X54050000Y-68900000D02*
X54050000Y-83950000D01*
X54050000Y-68900000D02*
G75*
G02X56050000Y-66900000I2000000J0D01*
G01*
X61550000Y-66900000D02*
X56050000Y-66900000D01*
X54050000Y-83950000D02*
G75*
G03X56050000Y-85950000I2000000J0D01*
G01*
X56050000Y-85950000D02*
X61550000Y-85950000D01*
X65550000Y-53800000D02*
X65550000Y-61150000D01*
X63550625Y-63199984D02*
X63550000Y-64900000D01*
X63550625Y-63199984D02*
G75*
G02X65550000Y-61150000I1999375J49984D01*
G01*
X61550000Y-66900000D02*
G75*
G03X63550000Y-64900000I0J2000000D01*
G01*
X65550000Y-143300000D02*
X328200000Y-143300000D01*
X328200000Y-143300000D02*
G75*
G03X330200000Y-141300000I0J2000000D01*
G01*
X330200000Y-141300000D02*
X330200000Y-126350000D01*
X65550000Y-53800000D02*
G75*
G02X63550000Y-51800000I0J2000000D01*
G01*
X63550625Y-50149984D02*
G75*
G02X65550000Y-48100000I1999375J49984D01*
G01*
X63550625Y-50149984D02*
X63550000Y-51800000D01*
X328200000Y-105250000D02*
X322700000Y-105250000D01*
X320700000Y-122350000D02*
G75*
G03X322700000Y-124350000I2000000J0D01*
G01*
X320700000Y-107250000D02*
X320700000Y-122350000D01*
X330200000Y-126350000D02*
G75*
G03X328200000Y-124350000I-2000000J0D01*
G01*
X322700000Y-124350000D02*
X328200000Y-124350000D01*
X330200000Y-103250000D02*
G75*
G02X328200000Y-105250000I-2000000J0D01*
G01*
X320700000Y-107250000D02*
G75*
G02X322700000Y-105250000I2000000J0D01*
G01*
X330200000Y-88200000D02*
X330200000Y-103250000D01*
X322700000Y-86200000D02*
X328200000Y-86200000D01*
X320700000Y-84200000D02*
G75*
G03X322700000Y-86200000I2000000J0D01*
G01*
X330200000Y-88200000D02*
G75*
G03X328200000Y-86200000I-2000000J0D01*
G01*
X320700000Y-69100000D02*
G75*
G02X322700000Y-67100000I2000000J0D01*
G01*
X330200000Y-65100000D02*
G75*
G02X328200000Y-67100000I-2000000J0D01*
G01*
X328200000Y-67100000D02*
X322700000Y-67100000D01*
X328200000Y-48100000D02*
G75*
G02X330200000Y-50100000I0J-2000000D01*
G01*
X320700000Y-69100000D02*
X320700000Y-84200000D01*
X330200000Y-50100000D02*
X330200000Y-65100000D01*
X65550000Y-48100000D02*
X328200000Y-48100000D01*
M02*
