M48
; DRILL file {KiCad (5.1.5-0-10_14)} date Saturday, December 14, 2019 at 07:49:27 PM
; FORMAT={-:-/ absolute / inch / decimal}
; #@! TF.CreationDate,2019-12-14T19:49:27-08:00
; #@! TF.GenerationSoftware,Kicad,Pcbnew,(5.1.5-0-10_14)
; #@! TF.FileFunction,NonPlated,1,2,NPTH
FMAT,2
INCH
T1C0.0670
T2C0.1200
T3C0.1570
%
G90
G05
T1
X6.426Y-2.2677
X6.826Y-2.2677
X10.551Y-4.5177
X10.951Y-4.5177
X4.551Y-4.5177
X4.951Y-4.5177
X4.926Y-3.7677
X5.326Y-3.7677
X11.301Y-3.0177
X11.701Y-3.0177
X3.426Y-2.2677
X3.826Y-2.2677
X7.551Y-4.5177
X7.951Y-4.5177
X4.551Y-3.0177
X4.951Y-3.0177
X9.426Y-5.2677
X9.826Y-5.2677
X11.676Y-3.7677
X12.076Y-3.7677
X9.426Y-3.7677
X9.826Y-3.7677
X4.926Y-5.2677
X5.326Y-5.2677
X8.676Y-2.2677
X9.076Y-2.2677
X2.676Y-5.2677
X3.076Y-5.2677
X6.801Y-4.5177
X7.201Y-4.5177
X7.176Y-3.7677
X7.576Y-3.7677
X12.426Y-5.2677
X12.826Y-5.2677
X11.676Y-2.2677
X12.076Y-2.2677
X5.676Y-2.2677
X6.076Y-2.2677
X9.801Y-4.5177
X10.201Y-4.5177
X3.801Y-4.5177
X4.201Y-4.5177
X6.801Y-3.0177
X7.201Y-3.0177
X4.176Y-3.7677
X4.576Y-3.7677
X10.926Y-2.2677
X11.326Y-2.2677
X10.551Y-3.0177
X10.951Y-3.0177
X2.676Y-2.2677
X3.076Y-2.2677
X12.048Y-3.7677
X12.448Y-3.7677
X3.426Y-3.7677
X3.826Y-3.7677
X6.426Y-5.2677
X6.826Y-5.2677
X9.801Y-3.0177
X10.201Y-3.0177
X4.176Y-5.2677
X4.576Y-5.2677
X7.926Y-2.2677
X8.326Y-2.2677
X12.051Y-4.5177
X12.451Y-4.5177
X6.051Y-4.5177
X6.451Y-4.5177
X8.676Y-3.7677
X9.076Y-3.7677
X3.051Y-3.0177
X3.451Y-3.0177
X6.426Y-3.7677
X6.826Y-3.7677
X11.676Y-5.2677
X12.076Y-5.2677
X2.676Y-4.5177
X3.076Y-4.5177
X7.926Y-5.2677
X8.326Y-5.2677
X4.926Y-2.2677
X5.326Y-2.2677
X9.051Y-4.5177
X9.451Y-4.5177
X5.301Y-4.5177
X5.701Y-4.5177
X8.301Y-3.0177
X8.701Y-3.0177
X3.051Y-4.5177
X3.451Y-4.5177
X6.051Y-3.0177
X6.451Y-3.0177
X2.301Y-4.5177
X2.701Y-4.5177
X3.801Y-3.0177
X4.201Y-3.0177
X8.676Y-5.2677
X9.076Y-5.2677
X10.926Y-3.7677
X11.326Y-3.7677
X10.176Y-2.2677
X10.576Y-2.2677
X4.176Y-2.2677
X4.576Y-2.2677
X9.051Y-3.0177
X9.451Y-3.0177
X8.302Y-5.2677
X8.702Y-5.2677
X2.676Y-3.7677
X3.076Y-3.7677
X5.676Y-5.2677
X6.076Y-5.2677
X3.426Y-5.2677
X3.826Y-5.2677
X7.176Y-2.2677
X7.576Y-2.2677
X11.301Y-4.5177
X11.701Y-4.5177
X5.676Y-3.7677
X6.076Y-3.7677
X10.926Y-5.2677
X11.326Y-5.2677
X12.051Y-3.0177
X12.451Y-3.0177
X8.301Y-4.5177
X8.701Y-4.5177
X7.551Y-3.0177
X7.951Y-3.0177
X5.301Y-3.0177
X5.701Y-3.0177
X10.176Y-5.2677
X10.576Y-5.2677
X12.426Y-3.7677
X12.826Y-3.7677
X2.301Y-3.0177
X2.701Y-3.0177
X10.176Y-3.7677
X10.576Y-3.7677
X9.426Y-2.2677
X9.826Y-2.2677
X7.926Y-3.7677
X8.326Y-3.7677
X6.8Y-5.2677
X7.2Y-5.2677
X12.426Y-2.2677
X12.826Y-2.2677
X7.176Y-5.2677
X7.576Y-5.2677
T2
X8.0335Y-5.5407
X8.9705Y-5.5407
X6.5315Y-5.5427
X7.4685Y-5.5427
X11.7795Y-4.0427
X12.7165Y-4.0427
X2.4075Y-4.7927
X3.3445Y-4.7927
T3
X10.376Y-3.7677
X9.626Y-2.2677
X8.126Y-3.7677
X7.0Y-5.2677
X12.626Y-2.2677
X7.376Y-5.2677
X6.626Y-2.2677
X10.751Y-4.5177
X4.751Y-4.5177
X5.126Y-3.7677
X11.501Y-3.0177
X3.626Y-2.2677
X7.751Y-4.5177
X4.751Y-3.0177
X9.626Y-5.2677
X11.876Y-3.7677
X9.626Y-3.7677
X5.126Y-5.2677
X8.876Y-2.2677
X2.876Y-5.2677
X7.001Y-4.5177
X7.376Y-3.7677
X12.626Y-5.2677
X11.876Y-2.2677
X5.876Y-2.2677
X10.001Y-4.5177
X4.001Y-4.5177
X7.001Y-3.0177
X4.376Y-3.7677
X11.126Y-2.2677
X10.751Y-3.0177
X8.0335Y-4.9407
X8.9705Y-4.9407
X2.876Y-2.2677
X12.248Y-3.7677
X3.626Y-3.7677
X6.626Y-5.2677
X10.001Y-3.0177
X4.376Y-5.2677
X8.126Y-2.2677
X12.251Y-4.5177
X6.251Y-4.5177
X8.876Y-3.7677
X3.251Y-3.0177
X6.626Y-3.7677
X6.5315Y-4.9427
X7.4685Y-4.9427
X11.876Y-5.2677
X2.876Y-4.5177
X8.126Y-5.2677
X5.126Y-2.2677
X9.251Y-4.5177
X5.501Y-4.5177
X8.501Y-3.0177
X11.7795Y-3.4427
X12.7165Y-3.4427
X3.251Y-4.5177
X6.251Y-3.0177
X2.501Y-4.5177
X4.001Y-3.0177
X8.876Y-5.2677
X11.126Y-3.7677
X10.376Y-2.2677
X2.4075Y-4.1927
X3.3445Y-4.1927
X4.376Y-2.2677
X9.251Y-3.0177
X8.502Y-5.2677
X2.876Y-3.7677
X5.876Y-5.2677
X3.626Y-5.2677
X7.376Y-2.2677
X11.501Y-4.5177
X5.876Y-3.7677
X11.126Y-5.2677
X12.251Y-3.0177
X8.501Y-4.5177
X7.751Y-3.0177
X5.501Y-3.0177
X10.376Y-5.2677
X12.626Y-3.7677
X2.501Y-3.0177
T0
M30
