M48
; DRILL file {KiCad (5.1.5-0-10_14)} date Saturday, December 14, 2019 at 07:49:27 PM
; FORMAT={-:-/ absolute / inch / decimal}
; #@! TF.CreationDate,2019-12-14T19:49:27-08:00
; #@! TF.GenerationSoftware,Kicad,Pcbnew,(5.1.5-0-10_14)
; #@! TF.FileFunction,Plated,1,2,PTH
FMAT,2
INCH
T1C0.0157
T2C0.0390
T3C0.0430
T4C0.0590
T5C0.0866
%
G90
G05
T1
X2.8622Y-2.1339
X3.5979Y-2.0536
X3.5984Y-2.1024
X4.0039Y-2.4508
X4.1014Y-2.4498
X4.2028Y-2.4508
X5.4474Y-2.4463
X5.5453Y-2.4469
X5.6358Y-2.4469
X8.061Y-4.1614
X8.0801Y-4.1155
X8.0801Y-4.2074
X8.126Y-4.0965
X8.126Y-4.2264
X8.1719Y-4.1155
X8.1719Y-4.2074
X8.1909Y-4.1614
X10.686Y-4.124
X10.7051Y-4.0781
X10.7051Y-4.1699
X10.751Y-4.0591
X10.751Y-4.189
X10.7969Y-4.0781
X10.7969Y-4.1699
X10.8159Y-4.124
X3.561Y-3.374
X3.5801Y-3.3281
X3.5801Y-3.4199
X3.626Y-3.3091
X3.626Y-3.439
X3.6719Y-3.3281
X3.6719Y-3.4199
X3.6909Y-3.374
X11.436Y-3.4114
X11.4551Y-3.3655
X11.4551Y-3.4574
X11.501Y-3.3465
X11.501Y-3.4764
X11.5469Y-3.3655
X11.5469Y-3.4574
X11.5659Y-3.4114
X5.436Y-4.124
X5.4551Y-4.0781
X5.4551Y-4.1699
X5.501Y-4.0591
X5.501Y-4.189
X5.5469Y-4.0781
X5.5469Y-4.1699
X5.5659Y-4.124
X4.311Y-2.6614
X4.3301Y-2.6155
X4.3301Y-2.7074
X4.376Y-2.5965
X4.376Y-2.7264
X4.4219Y-2.6155
X4.4219Y-2.7074
X4.4409Y-2.6614
X12.186Y-2.624
X12.2051Y-2.5781
X12.2051Y-2.6699
X12.251Y-2.5591
X12.251Y-2.689
X12.2969Y-2.5781
X12.2969Y-2.6699
X12.3159Y-2.624
X2.811Y-4.1614
X2.8301Y-4.1155
X2.8301Y-4.2074
X2.876Y-4.0965
X2.876Y-4.2264
X2.9219Y-4.1155
X2.9219Y-4.2074
X2.9409Y-4.1614
X9.936Y-4.9114
X9.9551Y-4.8655
X9.9551Y-4.9574
X10.001Y-4.8465
X10.001Y-4.9764
X10.0469Y-4.8655
X10.0469Y-4.9574
X10.0659Y-4.9114
X6.936Y-4.9114
X6.9551Y-4.8655
X6.9551Y-4.9574
X7.001Y-4.8465
X7.001Y-4.9764
X7.0469Y-4.8655
X7.0469Y-4.9574
X7.0659Y-4.9114
X8.811Y-3.374
X8.8301Y-3.3281
X8.8301Y-3.4199
X8.876Y-3.3091
X8.876Y-3.439
X8.9219Y-3.3281
X8.9219Y-3.4199
X8.9409Y-3.374
X6.186Y-3.4114
X6.2051Y-3.3655
X6.2051Y-3.4574
X6.251Y-3.3465
X6.251Y-3.4764
X6.2969Y-3.3655
X6.2969Y-3.4574
X6.3159Y-3.4114
X12.186Y-4.9114
X12.2051Y-4.8655
X12.2051Y-4.9574
X12.251Y-4.8465
X12.251Y-4.9764
X12.2969Y-4.8655
X12.2969Y-4.9574
X12.3159Y-4.9114
X4.686Y-4.9114
X4.7051Y-4.8655
X4.7051Y-4.9574
X4.751Y-4.8465
X4.751Y-4.9764
X4.7969Y-4.8655
X4.7969Y-4.9574
X4.8159Y-4.9114
X6.936Y-2.624
X6.9551Y-2.5781
X6.9551Y-2.6699
X7.001Y-2.5591
X7.001Y-2.689
X7.0469Y-2.5781
X7.0469Y-2.6699
X7.0659Y-2.624
X9.561Y-2.6614
X9.5801Y-2.6155
X9.5801Y-2.7074
X9.626Y-2.5965
X9.626Y-2.7264
X9.6719Y-2.6155
X9.6719Y-2.7074
X9.6909Y-2.6614
T2
X7.3258Y-2.8677
X7.3258Y-3.1677
X11.9262Y-4.3677
X11.9262Y-4.6677
X7.8012Y-2.1177
X7.8012Y-2.4177
X11.4508Y-3.6177
X11.4508Y-3.9177
X6.2008Y-3.6177
X6.2008Y-3.9177
X5.9262Y-2.8677
X5.9262Y-3.1677
X11.8258Y-4.3677
X11.8258Y-4.6677
X7.7008Y-2.1177
X7.7008Y-2.4177
X10.8012Y-3.6177
X10.8012Y-3.9177
X5.8258Y-4.3677
X5.8258Y-4.6677
X2.9262Y-2.8677
X2.9262Y-3.1677
X4.8012Y-3.6177
X4.8012Y-3.9177
X10.4262Y-4.3677
X10.4262Y-4.6677
X6.3012Y-2.1177
X6.3012Y-2.4177
X10.7008Y-3.6177
X10.7008Y-3.9177
X10.4262Y-2.8677
X10.4262Y-3.1677
X6.2008Y-5.1177
X6.2008Y-5.4177
X4.4262Y-4.3677
X4.4262Y-4.6677
X2.8258Y-2.8677
X2.8258Y-3.1677
X4.7008Y-3.6177
X4.7008Y-3.9177
X10.8012Y-5.1177
X10.8012Y-5.4177
X10.3258Y-4.3677
X10.3258Y-4.6677
X6.2008Y-2.1177
X6.2008Y-2.4177
X10.3258Y-2.8677
X10.3258Y-3.1677
X4.8012Y-5.1177
X4.8012Y-5.4177
X4.3258Y-4.3677
X4.3258Y-4.6677
X12.3012Y-2.1177
X12.3012Y-2.4177
X10.7008Y-5.1177
X10.7008Y-5.4177
X4.7008Y-5.1177
X4.7008Y-5.4177
X12.2008Y-2.1177
X12.2008Y-2.4177
X9.3012Y-5.1177
X9.3012Y-5.4177
X9.3012Y-3.6177
X9.3012Y-3.9177
X3.3012Y-5.1177
X3.3012Y-5.4177
X3.3012Y-3.6177
X3.3012Y-3.9177
X9.2008Y-5.1177
X9.2008Y-5.4177
X5.8258Y-2.8677
X5.8258Y-3.1677
X8.9262Y-4.3677
X8.9262Y-4.6677
X4.8012Y-2.1177
X4.8012Y-2.4177
X9.2008Y-3.6177
X9.2008Y-3.9177
X8.9262Y-2.8677
X8.9262Y-3.1677
X3.6762Y-4.3677
X3.6762Y-4.6677
X3.2008Y-3.6177
X3.2008Y-3.9177
X8.8258Y-4.3677
X8.8258Y-4.6677
X4.7008Y-2.1177
X4.7008Y-2.4177
X7.8012Y-3.6177
X7.8012Y-3.9177
X8.8258Y-2.8677
X8.8258Y-3.1677
X3.5758Y-4.3677
X3.5758Y-4.6677
X10.8012Y-2.1177
X10.8012Y-2.4177
X11.9262Y-2.8677
X11.9262Y-3.1677
X7.4262Y-4.3677
X7.4262Y-4.6677
X3.2953Y-2.1177
X3.2953Y-2.4177
X7.7008Y-3.6177
X7.7008Y-3.9177
X12.3012Y-5.1177
X12.3012Y-5.4177
X7.4262Y-2.8677
X7.4262Y-3.1677
X10.7008Y-2.1177
X10.7008Y-2.4177
X11.8258Y-2.8677
X11.8258Y-3.1677
X7.8012Y-5.1177
X7.8012Y-5.4177
X7.3258Y-4.3677
X7.3258Y-4.6677
X3.2008Y-2.1177
X3.2008Y-2.4177
X4.4262Y-2.8677
X4.4262Y-3.1677
X6.3012Y-3.6177
X6.3012Y-3.9177
X12.2008Y-5.1177
X12.2008Y-5.4177
X9.3012Y-2.1177
X9.3012Y-2.4177
X7.7008Y-5.1177
X7.7008Y-5.4177
X5.9262Y-4.3677
X5.9262Y-4.6677
X4.3258Y-2.8677
X4.3258Y-3.1677
X3.2008Y-5.1177
X3.2008Y-5.4177
X9.2008Y-2.1177
X9.2008Y-2.4177
X11.5512Y-3.6177
X11.5512Y-3.9177
X6.3012Y-5.1177
X6.3012Y-5.4177
T3
X2.8196Y-1.9677
X2.8196Y-2.5677
X2.9196Y-1.9677
X2.9196Y-2.5677
X3.0196Y-1.9677
X3.0196Y-2.5677
X3.1196Y-1.9677
X3.1196Y-2.5677
X3.2196Y-1.9677
X3.2196Y-2.5677
X3.3196Y-1.9677
X3.3196Y-2.5677
X3.4196Y-1.9677
X3.4196Y-2.5677
X3.5196Y-1.9677
X3.5196Y-2.5677
X3.6196Y-1.9677
X3.6196Y-2.5677
X3.7196Y-1.9677
X3.7196Y-2.5677
X3.8196Y-1.9677
X3.8196Y-2.5677
X3.9196Y-1.9767
X3.9196Y-2.0677
X3.9196Y-2.1677
X3.9196Y-2.2677
X3.9196Y-2.3677
X3.9196Y-2.4677
X3.9196Y-2.5677
T4
X10.226Y-3.6677
X10.476Y-3.5677
X9.476Y-2.1677
X9.726Y-2.0677
X7.976Y-3.6677
X8.226Y-3.5677
X6.9Y-5.4677
X7.15Y-5.3677
X12.476Y-2.1677
X12.726Y-2.0677
X7.226Y-5.1677
X7.476Y-5.0677
X6.476Y-2.1677
X6.726Y-2.0677
X10.601Y-4.4177
X10.851Y-4.3177
X4.601Y-4.4177
X4.851Y-4.3177
X4.976Y-3.6677
X5.226Y-3.5677
X11.351Y-2.9177
X11.601Y-2.8177
X3.476Y-2.1677
X3.726Y-2.0677
X7.601Y-4.4177
X7.851Y-4.3177
X4.601Y-2.9177
X4.851Y-2.8177
X9.476Y-5.1677
X9.726Y-5.0677
X11.726Y-3.6677
X11.976Y-3.5677
X9.476Y-3.6677
X9.726Y-3.5677
X4.976Y-5.1677
X5.226Y-5.0677
X8.726Y-2.1677
X8.976Y-2.0677
X2.726Y-5.1677
X2.976Y-5.0677
X6.851Y-4.4177
X7.101Y-4.3177
X7.226Y-3.6677
X7.476Y-3.5677
X12.476Y-5.1677
X12.726Y-5.0677
X11.726Y-2.1677
X11.976Y-2.0677
X5.726Y-2.1677
X5.976Y-2.0677
X9.851Y-4.4177
X10.101Y-4.3177
X3.851Y-4.4177
X4.101Y-4.3177
X6.851Y-2.9177
X7.101Y-2.8177
X4.226Y-3.6677
X4.476Y-3.5677
X10.976Y-2.1677
X11.226Y-2.0677
X10.601Y-2.9177
X10.851Y-2.8177
X2.726Y-2.1677
X2.976Y-2.0677
X12.148Y-3.9677
X12.398Y-3.8677
X3.476Y-3.6677
X3.726Y-3.5677
X6.476Y-5.1677
X6.726Y-5.0677
X9.851Y-2.9177
X10.101Y-2.8177
X4.226Y-5.1677
X4.476Y-5.0677
X7.976Y-2.1677
X8.226Y-2.0677
X12.101Y-4.4177
X12.351Y-4.3177
X6.101Y-4.4177
X6.351Y-4.3177
X8.726Y-3.6677
X8.976Y-3.5677
X3.101Y-2.9177
X3.351Y-2.8177
X6.476Y-3.6677
X6.726Y-3.5677
X11.726Y-5.1677
X11.976Y-5.0677
X2.776Y-4.7177
X3.026Y-4.6177
X7.976Y-5.1677
X8.226Y-5.0677
X4.976Y-2.1677
X5.226Y-2.0677
X9.101Y-4.4177
X9.351Y-4.3177
X5.351Y-4.4177
X5.601Y-4.3177
X8.351Y-2.9177
X8.601Y-2.8177
X3.101Y-4.4177
X3.351Y-4.3177
X6.101Y-2.9177
X6.351Y-2.8177
X2.351Y-4.4177
X2.601Y-4.3177
X3.851Y-2.9177
X4.101Y-2.8177
X8.726Y-5.1677
X8.976Y-5.0677
X10.976Y-3.6677
X11.226Y-3.5677
X10.226Y-2.1677
X10.476Y-2.0677
X4.226Y-2.1677
X4.476Y-2.0677
X9.101Y-2.9177
X9.351Y-2.8177
X8.402Y-5.4677
X8.652Y-5.3677
X2.726Y-3.6677
X2.976Y-3.5677
X5.726Y-5.1677
X5.976Y-5.0677
X3.476Y-5.1677
X3.726Y-5.0677
X7.226Y-2.1677
X7.476Y-2.0677
X11.351Y-4.4177
X11.601Y-4.3177
X5.726Y-3.6677
X5.976Y-3.5677
X10.976Y-5.1677
X11.226Y-5.0677
X12.101Y-2.9177
X12.351Y-2.8177
X8.351Y-4.4177
X8.601Y-4.3177
X7.601Y-2.9177
X7.851Y-2.8177
X5.351Y-2.9177
X5.601Y-2.8177
X10.226Y-5.1677
X10.476Y-5.0677
X12.476Y-3.6677
X12.726Y-3.5677
X2.351Y-2.9177
X2.601Y-2.8177
T5
X6.251Y-3.4114
X8.126Y-4.1614
X3.626Y-3.374
X4.376Y-2.6614
X12.251Y-2.624
X12.251Y-4.9114
X11.501Y-3.4114
X8.876Y-3.374
X7.001Y-2.624
X10.751Y-4.124
X2.876Y-4.1614
X10.001Y-4.9114
X7.001Y-4.9114
X4.751Y-4.9114
X9.626Y-2.6614
X5.501Y-4.124
T0
M30
