<?xml version="1.0" encoding="utf-8"?>
<!-- Generator: Adobe Illustrator 24.1.0, SVG Export Plug-In . SVG Version: 6.00 Build 0)  -->
<svg version="1.1" id="Layer_1" xmlns="http://www.w3.org/2000/svg" xmlns:xlink="http://www.w3.org/1999/xlink" x="0px" y="0px"
	 viewBox="0 0 856.7 343.7" style="enable-background:new 0 0 856.7 343.7;" xml:space="preserve">
<style type="text/css">
	.st0{fill:#FFDCDC;stroke:#F94646;stroke-width:0.5;}
	.st1{fill:#FFA9A9;}
</style>
<path class="st0" d="M14.2,25.5v292.7l0,0.9l0.1,0.9l0.2,0.9l0.2,0.9l0.3,0.8l0.4,0.8l0.4,0.8l0.5,0.7l0.6,0.7l0.6,0.7l0.7,0.6
	l0.7,0.6l0.7,0.5l0.8,0.4l0.8,0.4L22,329l0.9,0.2l0.9,0.2l0.9,0.1l0.9,0h805.7l0.9,0l0.9-0.1l0.9-0.2l0.9-0.2l0.8-0.3l0.8-0.4
	l0.8-0.4l0.7-0.5l0.7-0.6l0.7-0.6l0.6-0.7l0.6-0.7l0.5-0.7l0.4-0.8l0.4-0.8l0.3-0.8l0.2-0.9l0.2-0.9l0.1-0.9l0-0.9V101.5l0-0.8
	l-0.1-0.9l-0.2-0.9l-0.2-0.9l-0.3-0.8l-0.4-0.8l-0.4-0.8l-0.5-0.7l-0.6-0.7l-0.6-0.7l-0.6-0.5l-0.1-0.1l-0.7-0.6l-0.7-0.5l-0.8-0.4
	l-0.8-0.4l-0.8-0.3l-0.9-0.2l-0.9-0.2l-0.9-0.1l-0.9,0l-32.8,0c-3.2,0-5.8-2.6-5.8-5.8v-3.8c0-0.4-0.4-0.8-0.8-0.8h-32.6
	c-0.9,0-1.7-0.8-1.7-1.7c0,0,0,0,0,0V50.5c0-0.9,0.8-1.7,1.7-1.7c0,0,0,0,0,0H792c0.3,0,0.6-0.2,0.7-0.6c0.3-2.4,2.3-4.2,4.7-4.2
	h33.8l0.9,0l0.9-0.1l0.9-0.2l0.9-0.2l0.8-0.3l0.8-0.4l0.8-0.4l0.7-0.5l0.7-0.6l0.7-0.6l0.6-0.7l0.6-0.7l0.5-0.7l0.4-0.8l0.4-0.8
	l0.3-0.8l0.2-0.9l0.2-0.9l0-0.4l0.1-0.5l0-0.8v-7.2l0-0.9l-0.1-0.9l-0.2-0.9L842,22l-0.3-0.8l-0.4-0.8l-0.4-0.8l-0.5-0.7l-0.6-0.7
	l-0.6-0.7l-0.7-0.6l-0.7-0.6l-0.7-0.5l-0.8-0.4l-0.8-0.4l-0.8-0.3l-0.9-0.2l-0.9-0.2l-0.9-0.1l-0.9,0H25.5l-0.9,0l-0.9,0.1l-0.9,0.2
	L22,14.7L21.2,15l-0.8,0.4l-0.8,0.4l-0.7,0.5l-0.7,0.6l-0.7,0.6l-0.6,0.7l-0.6,0.7l-0.5,0.7l-0.4,0.8L15,21.2L14.7,22l-0.2,0.9
	l-0.2,0.9l-0.1,0.9L14.2,25.5z M709.7,63.2v16.9c0,0.9-0.8,1.7-1.7,1.7h-12.5c-0.9,0-1.7-0.8-1.7-1.7V63.2c0-0.9,0.8-1.7,1.7-1.7
	H708C708.9,61.5,709.7,62.3,709.7,63.2C709.7,63.2,709.7,63.2,709.7,63.2z M161.1,26.1c0,1.8-1.4,3.2-3.2,3.2
	c-1.8,0-3.2-1.4-3.2-3.2c0-1.8,1.4-3.2,3.2-3.2c0,0,0,0,0,0C159.7,23,161.1,24.4,161.1,26.1z M269.1,26.1c0,1.8-1.4,3.2-3.2,3.2
	c-1.8,0-3.2-1.4-3.2-3.2c0-1.8,1.4-3.2,3.2-3.2c0,0,0,0,0,0C267.7,23,269.1,24.4,269.1,26.1C269.1,26.1,269.1,26.1,269.1,26.1z
	 M377.1,26.1c0,1.8-1.4,3.2-3.2,3.2c-1.8,0-3.2-1.4-3.2-3.2c0-1.8,1.4-3.2,3.2-3.2c0,0,0,0,0,0C375.7,23,377.1,24.4,377.1,26.1
	L377.1,26.1z M485.1,26.1c0,1.8-1.4,3.2-3.2,3.2c-1.8,0-3.2-1.4-3.2-3.2c0-1.8,1.4-3.2,3.2-3.2c0,0,0,0,0,0
	C483.7,23,485.1,24.4,485.1,26.1L485.1,26.1z M593.1,26.1c0,1.8-1.4,3.2-3.2,3.2c-1.8,0-3.2-1.4-3.2-3.2c0-1.8,1.4-3.2,3.2-3.2
	c0,0,0,0,0,0C591.7,23,593.1,24.4,593.1,26.1L593.1,26.1z M701.1,26.1c0,1.8-1.4,3.2-3.2,3.2c-1.8,0-3.2-1.4-3.2-3.2
	c0-1.8,1.4-3.2,3.2-3.2c0,0,0,0,0,0C699.7,23,701.1,24.4,701.1,26.1L701.1,26.1z M826.7,317.1c0-1.8,1.4-3.2,3.2-3.2
	s3.2,1.4,3.2,3.2c0,1.8-1.4,3.2-3.2,3.2l0,0C828.2,320.3,826.7,318.9,826.7,317.1C826.7,317.1,826.7,317.1,826.7,317.1L826.7,317.1z
	 M826.7,225.6c0-1.8,1.4-3.2,3.2-3.2c1.8,0,3.2,1.4,3.2,3.2c0,1.8-1.4,3.2-3.2,3.2l0,0C828.2,228.8,826.7,227.4,826.7,225.6
	C826.7,225.6,826.7,225.6,826.7,225.6L826.7,225.6z M826.7,117.6c0-1.8,1.4-3.2,3.2-3.2c1.8,0,3.2,1.4,3.2,3.2
	c0,1.8-1.4,3.2-3.2,3.2l0,0C828.2,120.8,826.7,119.4,826.7,117.6C826.7,117.6,826.7,117.6,826.7,117.6L826.7,117.6z M826.7,26.1
	c0-1.8,1.4-3.2,3.2-3.2c1.8,0,3.2,1.4,3.2,3.2c0,1.8-1.4,3.2-3.2,3.2l0,0C828.2,29.3,826.7,27.9,826.7,26.1
	C826.7,26.1,826.7,26.1,826.7,26.1L826.7,26.1z M694.7,317.1c0-1.8,1.4-3.2,3.2-3.2c1.8,0,3.2,1.4,3.2,3.2c0,1.8-1.4,3.2-3.2,3.2
	l0,0C696.2,320.3,694.7,318.9,694.7,317.1C694.7,317.1,694.7,317.1,694.7,317.1z M586.7,317.1c0-1.8,1.4-3.2,3.2-3.2
	c1.8,0,3.2,1.4,3.2,3.2c0,1.8-1.4,3.2-3.2,3.2c0,0,0,0,0,0C588.2,320.3,586.7,318.9,586.7,317.1L586.7,317.1z M478.7,317.1
	c0-1.8,1.4-3.2,3.2-3.2c1.8,0,3.2,1.4,3.2,3.2c0,1.8-1.4,3.2-3.2,3.2C480.2,320.3,478.7,318.9,478.7,317.1L478.7,317.1z
	 M370.7,317.1c0-1.8,1.4-3.2,3.2-3.2c1.8,0,3.2,1.4,3.2,3.2c0,1.8-1.4,3.2-3.2,3.2C372.2,320.3,370.7,318.9,370.7,317.1L370.7,317.1
	z M262.7,317.1c0-1.8,1.4-3.2,3.2-3.2c1.8,0,3.2,1.4,3.2,3.2c0,1.8-1.4,3.2-3.2,3.2C264.2,320.3,262.7,318.9,262.7,317.1
	L262.7,317.1z M154.7,317.1c0-1.8,1.4-3.2,3.2-3.2c1.8,0,3.2,1.4,3.2,3.2c0,1.8-1.4,3.2-3.2,3.2
	C156.2,320.3,154.7,318.9,154.7,317.1L154.7,317.1z M22.7,317.1c0-1.8,1.4-3.2,3.2-3.2s3.2,1.4,3.2,3.2c0,1.8-1.4,3.2-3.2,3.2
	c0,0,0,0,0,0C24.2,320.3,22.7,318.9,22.7,317.1L22.7,317.1z M22.7,225.6c0-1.8,1.4-3.2,3.2-3.2s3.2,1.4,3.2,3.2
	c0,1.8-1.4,3.2-3.2,3.2c0,0,0,0,0,0C24.2,228.8,22.7,227.4,22.7,225.6L22.7,225.6z M22.7,117.6c0-1.8,1.4-3.2,3.2-3.2
	s3.2,1.4,3.2,3.2c0,1.8-1.4,3.2-3.2,3.2c0,0,0,0,0,0C24.2,120.8,22.7,119.4,22.7,117.6L22.7,117.6z M22.7,26.1
	c0-1.8,1.4-3.2,3.2-3.2s3.2,1.4,3.2,3.2s-1.4,3.2-3.2,3.2c0,0,0,0,0,0C24.2,29.3,22.7,27.9,22.7,26.1L22.7,26.1z"/>
<path class="st1" d="M380.6,210.4v-0.5c0-0.4-0.1-0.9-0.2-1.3l0-0.1c-0.1-0.3-0.3-0.6-0.5-0.8c-0.2-0.2-0.4-0.4-0.7-0.5
	c-0.3-0.1-0.7-0.2-1-0.2c-0.3,0-0.6,0.1-0.9,0.2c-0.3,0.1-0.5,0.3-0.7,0.5c-0.2,0.2-0.4,0.4-0.5,0.7c-0.1,0.3-0.2,0.5-0.3,0.8
	c-0.1,0.3-0.1,0.6-0.2,0.9c0,0.3-0.1,0.6-0.1,0.9v1.7c0,0.3,0,0.6,0.1,0.9c0,0.3,0.1,0.6,0.2,0.9c0.1,0.3,0.2,0.6,0.3,0.8
	c0.1,0.3,0.3,0.5,0.5,0.7c0.2,0.2,0.4,0.4,0.7,0.5c0.3,0.1,0.6,0.2,0.9,0.2c0.3,0,0.7-0.1,1-0.2c0.3-0.1,0.5-0.3,0.7-0.5
	c0.2-0.2,0.4-0.5,0.5-0.8c0,0,0-0.1,0-0.1c0.1-0.4,0.2-0.8,0.2-1.3v-0.7h1.5v0.7c0,0.4,0,0.8-0.1,1.1v0c-0.1,0.3-0.2,0.5-0.3,0.7
	c-0.2,0.4-0.5,0.8-0.8,1.2c-0.3,0.3-0.7,0.6-1.2,0.8c-0.5,0.2-1,0.3-1.5,0.3c-0.4,0-0.9-0.1-1.3-0.2c-0.4-0.1-0.7-0.3-1.1-0.6
	c-0.3-0.2-0.6-0.5-0.8-0.9c-0.2-0.3-0.4-0.7-0.6-1.1c-0.1-0.4-0.3-0.8-0.3-1.2c-0.1-0.4-0.1-0.9-0.1-1.3V211c0-0.4,0-0.9,0.1-1.3
	c0.1-0.4,0.2-0.8,0.3-1.2c0.1-0.4,0.3-0.7,0.6-1.1c0.2-0.3,0.5-0.6,0.8-0.9c0.3-0.2,0.7-0.4,1-0.6c0.4-0.1,0.9-0.2,1.3-0.2
	c0.5,0,1.1,0.1,1.6,0.3c0.4,0.2,0.8,0.4,1.2,0.8c0.3,0.3,0.6,0.7,0.8,1.2c0.1,0.1,0.1,0.3,0.2,0.4c0,0,0,0.1,0,0.1
	c0.1,0.5,0.2,0.9,0.2,1.4v0.5L380.6,210.4z"/>
<path class="st1" d="M384.4,205.9h7.1v1.3h-2.8v9.1h2.8v1.3h-7.1v-1.3h2.7v-9.1h-2.7L384.4,205.9z"/>
<path class="st1" d="M401.7,217.6h-1.5l-4.5-8.7l0,8.7h-1.5v-11.7h1.5l4.5,8.7l0-8.7h1.5V217.6z"/>
<path class="st1" d="M404,205.9h2.7c0.7,0,1.5,0.1,2.2,0.4c0.6,0.2,1.2,0.6,1.6,1.1c0.5,0.5,0.8,1.1,1,1.7c0.2,0.7,0.4,1.5,0.4,2.2
	v0.9c0,0.7-0.1,1.5-0.4,2.2c-0.2,0.6-0.6,1.2-1,1.7c-0.5,0.5-1,0.9-1.6,1.1c-0.7,0.3-1.4,0.4-2.2,0.4H404V205.9z M405.5,207.1v9.3
	h1.2c0.6,0,1.1-0.1,1.6-0.3c0.4-0.2,0.8-0.5,1.1-0.9c0.3-0.4,0.5-0.8,0.7-1.3c0.2-0.5,0.2-1.1,0.2-1.7v-0.9c0-0.6-0.1-1.1-0.2-1.6
	c-0.1-0.5-0.4-0.9-0.7-1.3c-0.3-0.4-0.7-0.7-1.1-0.9c-0.5-0.2-1.1-0.3-1.6-0.3L405.5,207.1z"/>
<path class="st1" d="M420.7,212.2h-4.9v4.1h5.7v1.3h-7.2v-11.7h7.1v1.3h-5.6v3.8h4.9V212.2z"/>
<path class="st1" d="M431.8,212.2v5.4h-1.5v-4.8h-4.7v4.8h-1.5v-11.7h3.4c0.5,0,1,0.1,1.5,0.2c0.5,0.1,0.9,0.4,1.3,0.6
	c0.4,0.3,0.7,0.7,0.9,1.1c0.2,0.5,0.3,1,0.3,1.5c0,0.4-0.1,0.7-0.2,1c-0.1,0.3-0.3,0.6-0.5,0.9c-0.2,0.3-0.4,0.5-0.7,0.7
	c-0.1,0.1-0.2,0.1-0.2,0.2H431.8z M425.6,211.6h2c0.3,0,0.6-0.1,0.9-0.2c0.3-0.1,0.5-0.2,0.8-0.4c0.2-0.2,0.4-0.4,0.5-0.7
	c0.1-0.3,0.2-0.6,0.2-0.9c0-0.3-0.1-0.7-0.2-1c-0.1-0.3-0.3-0.5-0.5-0.7c-0.2-0.2-0.5-0.3-0.8-0.4c-0.3-0.1-0.7-0.2-1-0.2h-2V211.6z
	"/>
<path class="st1" d="M441.7,211.5v6.2h-7.6v-11.7h3.5c0.5,0,1,0.1,1.4,0.2c0.4,0.1,0.9,0.3,1.2,0.6c0.8,0.5,1.2,1.4,1.2,2.4
	c0,0.3-0.1,0.6-0.1,0.8c-0.1,0.2-0.2,0.5-0.4,0.7c-0.2,0.2-0.4,0.4-0.6,0.5c-0.2,0.2-0.5,0.3-0.7,0.4L441.7,211.5z M435.6,210.9h2.1
	c0.3,0,0.6,0,0.8-0.1c0.3-0.1,0.5-0.2,0.7-0.4c0.2-0.2,0.4-0.4,0.5-0.6c0.1-0.2,0.2-0.5,0.2-0.8c0-0.3-0.1-0.6-0.2-0.8
	c-0.1-0.2-0.3-0.4-0.5-0.6c-0.2-0.2-0.5-0.3-0.7-0.3c-0.3-0.1-0.6-0.1-0.8-0.1h-2L435.6,210.9z M440.2,212.1h-4.6v4.2h4.6
	L440.2,212.1z"/>
<path class="st1" d="M445.8,216.4h5.7v1.3h-7.2v-11.7h1.5L445.8,216.4z"/>
<path class="st1" d="M461.8,213.7c-0.1,0.4-0.2,0.8-0.3,1.2c-0.1,0.4-0.3,0.8-0.5,1.1c-0.2,0.3-0.5,0.6-0.8,0.9
	c-0.3,0.3-0.7,0.5-1,0.6c-0.8,0.3-1.8,0.3-2.6,0c-0.4-0.1-0.7-0.3-1-0.6c-0.3-0.3-0.6-0.6-0.8-0.9c-0.2-0.3-0.4-0.7-0.5-1.1
	c-0.1-0.4-0.2-0.8-0.3-1.2c-0.1-0.4-0.1-0.8-0.1-1.3v-1.3c0-0.4,0-0.8,0.1-1.3c0.1-0.4,0.2-0.8,0.3-1.2c0.1-0.4,0.3-0.8,0.5-1.1
	c0.2-0.3,0.5-0.6,0.8-0.9c0.3-0.3,0.7-0.5,1-0.6c0.8-0.3,1.8-0.3,2.6,0c0.4,0.1,0.7,0.3,1,0.6c0.3,0.3,0.6,0.6,0.8,0.9
	c0.2,0.4,0.4,0.7,0.5,1.1c0.1,0.4,0.2,0.8,0.3,1.2c0.1,0.4,0.1,0.8,0.1,1.3v1.3C461.9,212.9,461.9,213.3,461.8,213.7z M460.5,211.1
	c0-0.3,0-0.6-0.1-0.9c0-0.3-0.1-0.6-0.2-0.9c-0.1-0.3-0.2-0.6-0.3-0.9c-0.1-0.3-0.3-0.5-0.5-0.7c-0.4-0.4-1-0.7-1.6-0.7
	c-0.3,0-0.6,0.1-0.9,0.2c-0.3,0.1-0.5,0.3-0.7,0.5c-0.2,0.2-0.4,0.5-0.5,0.7c-0.1,0.3-0.2,0.6-0.3,0.9c-0.1,0.3-0.1,0.6-0.2,0.9
	c0,0.3-0.1,0.6-0.1,0.9v1.3c0,0.3,0,0.6,0.1,0.9c0,0.3,0.1,0.6,0.2,0.9c0.1,0.3,0.2,0.6,0.3,0.9c0.1,0.3,0.3,0.5,0.5,0.7
	c0.2,0.2,0.4,0.4,0.7,0.5c0.3,0.1,0.6,0.2,0.9,0.2c0.6,0,1.2-0.2,1.6-0.7c0.2-0.2,0.4-0.5,0.5-0.7c0.1-0.3,0.2-0.6,0.3-0.9
	c0.1-0.3,0.1-0.6,0.2-0.9c0-0.3,0-0.6,0.1-0.9L460.5,211.1z"/>
<path class="st1" d="M470.4,210.4v-0.5c0-0.4-0.1-0.9-0.2-1.3l0-0.1c-0.1-0.3-0.3-0.6-0.5-0.8c-0.2-0.2-0.4-0.4-0.7-0.5
	c-0.3-0.1-0.7-0.2-1-0.2c-0.3,0-0.6,0.1-0.9,0.2c-0.3,0.1-0.5,0.3-0.7,0.5c-0.2,0.2-0.4,0.4-0.5,0.7c-0.1,0.3-0.2,0.5-0.3,0.8
	c-0.1,0.3-0.1,0.6-0.2,0.9c0,0.3-0.1,0.6-0.1,0.9v1.7c0,0.3,0,0.6,0.1,0.9c0,0.3,0.1,0.6,0.2,0.9c0.1,0.3,0.2,0.6,0.3,0.8
	c0.1,0.3,0.3,0.5,0.5,0.7c0.2,0.2,0.4,0.4,0.7,0.5c0.3,0.1,0.6,0.2,0.9,0.2c0.3,0,0.7-0.1,1-0.2c0.3-0.1,0.5-0.3,0.7-0.5
	c0.2-0.2,0.4-0.5,0.5-0.8c0,0,0-0.1,0-0.1c0.1-0.4,0.2-0.8,0.2-1.3v-0.7h1.5v0.7c0,0.4,0,0.8-0.1,1.1v0c-0.1,0.3-0.2,0.5-0.3,0.7
	c-0.2,0.4-0.5,0.8-0.8,1.2c-0.3,0.3-0.7,0.6-1.2,0.8c-0.5,0.2-1,0.3-1.5,0.3c-0.4,0-0.9-0.1-1.3-0.2c-0.4-0.1-0.7-0.3-1.1-0.6
	c-0.3-0.2-0.6-0.5-0.8-0.9c-0.2-0.3-0.4-0.7-0.6-1.1c-0.1-0.4-0.3-0.8-0.3-1.2c-0.1-0.4-0.1-0.9-0.1-1.3V211c0-0.4,0-0.9,0.1-1.3
	c0.1-0.4,0.2-0.8,0.3-1.2c0.1-0.4,0.3-0.7,0.6-1.1c0.2-0.3,0.5-0.6,0.8-0.9c0.3-0.2,0.7-0.4,1-0.6c0.4-0.1,0.9-0.2,1.3-0.2
	c0.5,0,1.1,0.1,1.6,0.3c0.4,0.2,0.8,0.4,1.2,0.8c0.3,0.3,0.6,0.7,0.8,1.2c0.1,0.1,0.1,0.3,0.2,0.4l0,0.1c0.1,0.5,0.2,0.9,0.2,1.4
	v0.5L470.4,210.4z"/>
<path class="st1" d="M480.1,205.9h1.8l-4.4,6.6l4.1,5.1h-1.8l-3.4-4.3l-1.1-1.4v5.7h-1.5v-11.7h1.5v3.9l1.3,1.5L480.1,205.9z"/>
<path class="st1" d="M432.9,173.9l-8.9-4.4c-0.1,0-0.2,0-0.2,0c-0.1,0-0.1,0.1-0.1,0.2v11.9c0,0.1,0.1,0.2,0.1,0.2l8.8,4.4l0.1,0.1
	c0,0,0.1,0,0.1,0c0,0,0.1,0,0.1,0c0.1,0,0.1-0.1,0.1-0.2v-11.9C433,174,433,173.9,432.9,173.9z M424.5,181.5l8-4v8.1L424.5,181.5z
	 M424.1,170l8.4,4.2v2.7l-8.4,4.2V170z"/>
<path class="st1" d="M420.9,167.9l-8.9-4.4c-0.1,0-0.2,0-0.2,0c-0.1,0-0.1,0.1-0.1,0.2v11.9c0,0.1,0.1,0.2,0.1,0.2l8.8,4.4l0.1,0.1
	c0,0,0.1,0,0.1,0c0,0,0.1,0,0.1,0c0.1,0,0.1-0.1,0.1-0.2v-11.9C421,168.1,421,168,420.9,167.9z M412.5,175.6l8-4v8.1L412.5,175.6z
	 M412.1,164.1l8.4,4.2v2.7l-8.4,4.2V164.1z"/>
<path class="st1" d="M450.7,182.7l-2.9-1.4v-8.6l2.8-1.4c0.1,0,0.1-0.1,0.1-0.2v-2.8c0,0,0.1-0.1,0.1-0.2c0-0.1-0.1-0.2-0.1-0.2
	l-32.7-16.3c-0.1,0-0.2,0-0.2,0l-11.9,5.9l0,0h0c0,0,0,0-0.1,0.1c0,0,0,0,0,0c0,0,0,0.1,0,0.1v3c0,0.1,0.1,0.2,0.1,0.2l2.8,1.4v8.6
	l-2.8,1.4l0,0h0c0,0,0,0-0.1,0.1c0,0,0,0,0,0c0,0,0,0.1,0,0.1v3c0,0.1,0.1,0.2,0.1,0.2l32.6,16.3c0.1,0,0.2,0,0.2,0l11.9-5.9
	c0.1,0,0.1-0.1,0.1-0.2v-2.8c0,0,0.1-0.1,0.1-0.2C450.9,182.9,450.8,182.8,450.7,182.7z M450.3,185.8l-11.4,5.7v-2.4l11.4-5.7V185.8
	z M406.6,172.6l2.2-1.1v2.2L406.6,172.6z M450,168.1l-11.3,5.6l-32.1-16l11.3-5.6L450,168.1z M406.3,173l2.6,1.3c0,0,0.1,0,0.1,0h0
	c0,0,0.1,0,0.1,0c0.1,0,0.1-0.1,0.1-0.2v-11.9c0-0.1-0.1-0.2-0.1-0.2l-2.8-1.4v-2.4l32.1,16.1v2.4l-2.6-1.3c-0.1-0.1-0.3,0-0.3,0.1
	c0,0,0,0.1,0,0.1v11.9l0,0v0c0,0,0,0.1,0,0.1v0c0,0,0,0,0,0c0,0,0,0,0.1,0.1h0l0,0l2.8,1.4v2.4l-32.1-16.1L406.3,173z M438.7,188.6
	l-2.4-1.2l0.4-0.2l10.9-5.4l2.4,1.2L438.7,188.6z M447.3,181.3l-3.1,1.6L436,187v-11l2.6,1.3c0,0,0,0,0.1,0c0,0,0,0,0,0h0
	c0,0,0,0,0,0c0,0,0.1,0,0.1,0l0,0l3.7-1.9l4.8-2.4L447.3,181.3z M450.3,171l-2.8,1.4l0,0l-8.5,4.3v-2.4l11.4-5.7L450.3,171z"/>
</svg>
