<?xml version="1.0" encoding="utf-8"?>
<!-- Generator: Adobe Illustrator 24.1.0, SVG Export Plug-In . SVG Version: 6.00 Build 0)  -->
<svg version="1.1" id="Layer_1" xmlns="http://www.w3.org/2000/svg" xmlns:xlink="http://www.w3.org/1999/xlink" x="0px" y="0px"
	 viewBox="0 0 856.7 343.7" style="enable-background:new 0 0 856.7 343.7;" xml:space="preserve">
<style type="text/css">
	.st0{fill:#FFDCDC;stroke:#F94646;stroke-width:0.5;}
	.st1{fill:none;}
	.st2{fill:#FFA9A9;stroke:#F94646;stroke-width:0.5;}
</style>
<path class="st0" d="M14.2,25.5v292.7l0,0.9l0.1,0.9l0.2,0.9l0.2,0.9l0.3,0.8l0.4,0.8l0.4,0.8l0.5,0.7l0.6,0.7l0.6,0.7l0.7,0.6
	l0.7,0.6l0.7,0.5l0.8,0.4l0.8,0.4L22,329l0.9,0.2l0.9,0.2l0.9,0.1l0.9,0h805.7l0.9,0l0.9-0.1l0.9-0.2l0.9-0.2l0.8-0.3l0.8-0.4
	l0.8-0.4l0.7-0.5l0.7-0.6l0.7-0.6l0.6-0.7l0.6-0.7l0.5-0.7l0.4-0.8l0.4-0.8l0.3-0.8l0.2-0.9l0.2-0.9l0.1-0.9l0-0.9V25.5l0-0.9
	l-0.1-0.9l-0.2-0.9L842,22l-0.3-0.8l-0.4-0.8l-0.4-0.8l-0.5-0.7l-0.6-0.7l-0.6-0.7l-0.7-0.6l-0.7-0.6l-0.7-0.5l-0.8-0.4l-0.8-0.4
	l-0.8-0.3l-0.9-0.2l-0.9-0.2l-0.9-0.1l-0.9,0H25.5l-0.9,0l-0.9,0.1l-0.9,0.2L22,14.7L21.2,15l-0.8,0.4l-0.8,0.4l-0.7,0.5l-0.7,0.6
	l-0.7,0.6l-0.6,0.7l-0.6,0.7l-0.5,0.7l-0.4,0.8L15,21.2L14.7,22l-0.2,0.9l-0.2,0.9l-0.1,0.9L14.2,25.5z M137.3,83.5H97.6V43.8h39.7
	V83.5z M110.3,205.8v39.7H70.6v-39.7L110.3,205.8z M718.6,137.5V97.8h39.7v39.7L718.6,137.5z M785.3,151.8v39.7h-39.7v-39.7H785.3z
	 M731.3,191.5h-39.7v-39.7h39.7V191.5z M664.6,137.5V97.8h39.7v39.7H664.6z M704.3,245.5h-39.7v-39.7h39.7V245.5z M812.3,245.5
	h-93.7v-39.7h93.7L812.3,245.5z M637.6,191.5v-39.7h39.7v39.7H637.6z M610.6,137.5V97.8h39.7v39.7H610.6z M650.3,245.5h-39.7v-39.7
	h39.7L650.3,245.5z M583.6,191.5v-39.7h39.7v39.7H583.6z M556.6,137.5V97.8h39.7v39.7H556.6z M596.3,245.5h-39.7v-39.7h39.7
	L596.3,245.5z M529.6,191.5v-39.7h39.7v39.7H529.6z M502.6,137.5V97.8h39.7v39.7H502.6z M542.3,245.5h-39.7v-39.7h39.7L542.3,245.5z
	 M475.6,191.5v-39.7h39.7v39.7H475.6z M448.6,137.5V97.8h39.7v39.7H448.6z M488.3,245.5h-39.7v-39.7h39.7L488.3,245.5z M421.6,191.5
	v-39.7h39.7v39.7H421.6z M394.6,137.5V97.8h39.7v39.7H394.6z M434.3,245.5h-39.7v-39.7h39.7L434.3,245.5z M367.6,191.5v-39.7h39.7
	v39.7H367.6z M340.6,137.5V97.8h39.7v39.7H340.6z M380.3,245.5h-39.7v-39.7h39.7L380.3,245.5z M313.6,191.5v-39.7h39.7v39.7H313.6z
	 M286.6,137.5V97.8h39.7v39.7H286.6z M326.3,245.5h-39.7v-39.7h39.7L326.3,245.5z M259.6,191.5v-39.7h39.7v39.7H259.6z M232.6,137.5
	V97.8h39.7v39.7H232.6z M272.3,245.5h-39.7v-39.7h39.7L272.3,245.5z M205.6,191.5v-39.7h39.7v39.7H205.6z M178.6,137.5V97.8h39.7
	v39.7H178.6z M218.3,245.5h-39.7v-39.7h39.7L218.3,245.5z M151.6,191.5v-39.7h39.7v39.7H151.6z M43.6,191.5v-39.7h93.7v39.7H43.6z
	 M124.6,137.5V97.8h39.7v39.7H124.6z M164.3,245.5h-39.7v-39.7h39.7L164.3,245.5z M70.6,97.8h39.7v39.7H70.6V97.8z M161.1,26.2
	c0,1.8-1.4,3.2-3.2,3.2c-1.8,0-3.2-1.4-3.2-3.2c0-1.8,1.4-3.2,3.2-3.2C159.7,23,161.1,24.4,161.1,26.2L161.1,26.2z M191.3,83.5
	h-39.7V43.8h39.7L191.3,83.5z M245.3,83.5h-39.7V43.8h39.7L245.3,83.5z M269.1,26.2c0,1.8-1.4,3.2-3.2,3.2c-1.8,0-3.2-1.4-3.2-3.2
	c0-1.8,1.4-3.2,3.2-3.2c0,0,0,0,0,0C267.7,23,269.1,24.4,269.1,26.2C269.1,26.1,269.1,26.1,269.1,26.2L269.1,26.2z M299.3,83.5
	h-39.7V43.8h39.7L299.3,83.5z M353.3,83.5h-39.7V43.8h39.7L353.3,83.5z M377.1,26.2c0,1.8-1.4,3.2-3.2,3.2c-1.8,0-3.2-1.4-3.2-3.2
	c0-1.8,1.4-3.2,3.2-3.2c0,0,0,0,0,0C375.7,23,377.1,24.4,377.1,26.2C377.1,26.1,377.1,26.1,377.1,26.2L377.1,26.2z M407.3,83.5
	h-39.7V43.8h39.7L407.3,83.5z M461.3,83.5h-39.7V43.8h39.7L461.3,83.5z M485.1,26.2c0,1.8-1.4,3.2-3.2,3.2c-1.8,0-3.2-1.4-3.2-3.2
	c0-1.8,1.4-3.2,3.2-3.2c0,0,0,0,0,0C483.7,23,485.1,24.4,485.1,26.2C485.1,26.1,485.1,26.1,485.1,26.2L485.1,26.2z M515.3,83.5
	h-39.7V43.8h39.7L515.3,83.5z M569.3,83.5h-39.7V43.8h39.7L569.3,83.5z M593.1,26.2c0,1.8-1.4,3.2-3.2,3.2c-1.8,0-3.2-1.4-3.2-3.2
	c0-1.8,1.4-3.2,3.2-3.2c0,0,0,0,0,0C591.7,23,593.1,24.4,593.1,26.2L593.1,26.2z M623.3,83.5h-39.7V43.8h39.7L623.3,83.5z
	 M677.3,83.5h-39.7V43.8h39.7L677.3,83.5z M701.1,26.2c0,1.8-1.4,3.2-3.2,3.2c-1.8,0-3.2-1.4-3.2-3.2c0-1.8,1.4-3.2,3.2-3.2
	C699.7,23,701.1,24.4,701.1,26.2L701.1,26.2z M731.3,83.5h-39.7V43.8h39.7L731.3,83.5z M785.3,83.5h-39.7V43.8h39.7L785.3,83.5z
	 M826.7,317.1c0-1.8,1.4-3.2,3.2-3.2c1.8,0,3.2,1.4,3.2,3.2c0,1.8-1.4,3.2-3.2,3.2l0,0C828.1,320.3,826.7,318.9,826.7,317.1
	L826.7,317.1z M826.7,225.6c0-1.8,1.4-3.2,3.2-3.2c1.8,0,3.2,1.4,3.2,3.2c0,1.8-1.4,3.2-3.2,3.2l0,0
	C828.1,228.8,826.7,227.4,826.7,225.6L826.7,225.6z M826.7,117.6c0-1.8,1.4-3.2,3.2-3.2c1.8,0,3.2,1.4,3.2,3.2s-1.4,3.2-3.2,3.2l0,0
	C828.1,120.8,826.7,119.4,826.7,117.6L826.7,117.6z M826.7,26.2c0-1.8,1.4-3.2,3.2-3.2c1.8,0,3.2,1.4,3.2,3.2s-1.4,3.2-3.2,3.2l0,0
	C828.1,29.3,826.7,27.9,826.7,26.2L826.7,26.2z M812.3,137.5h-39.7V97.8h39.7V137.5z M745.6,259.8h39.7v39.7h-39.7V259.8z
	 M694.7,317.1c0-1.8,1.4-3.2,3.2-3.2c1.8,0,3.2,1.4,3.2,3.2c0,1.8-1.4,3.2-3.2,3.2C696.2,320.3,694.7,318.9,694.7,317.1L694.7,317.1
	L694.7,317.1z M691.6,259.8h39.7v39.7h-39.7L691.6,259.8z M637.6,259.8h39.7v39.7h-39.7L637.6,259.8z M586.7,317.1
	c0-1.8,1.4-3.2,3.2-3.2c1.8,0,3.2,1.4,3.2,3.2c0,1.8-1.4,3.2-3.2,3.2c0,0,0,0,0,0C588.2,320.3,586.7,318.9,586.7,317.1L586.7,317.1z
	 M583.6,259.8h39.7v39.7h-39.7L583.6,259.8z M529.6,259.8h39.7v39.7h-39.7L529.6,259.8z M421.6,259.8h93.7v39.7h-93.7L421.6,259.8z
	 M313.6,259.8h93.7v39.7h-93.7V259.8z M478.7,317.1c0-1.8,1.4-3.2,3.2-3.2c1.8,0,3.2,1.4,3.2,3.2c0,1.8-1.4,3.2-3.2,3.2
	C480.2,320.3,478.7,318.9,478.7,317.1C478.7,317.1,478.7,317.1,478.7,317.1L478.7,317.1z M370.7,317.1c0-1.8,1.4-3.2,3.2-3.2
	c1.8,0,3.2,1.4,3.2,3.2c0,1.8-1.4,3.2-3.2,3.2c0,0,0,0,0,0C372.2,320.3,370.7,318.9,370.7,317.1
	C370.7,317.1,370.7,317.1,370.7,317.1L370.7,317.1z M262.7,317.1c0-1.8,1.4-3.2,3.2-3.2c1.8,0,3.2,1.4,3.2,3.2
	c0,1.8-1.4,3.2-3.2,3.2C264.2,320.3,262.7,318.9,262.7,317.1C262.7,317.1,262.7,317.1,262.7,317.1L262.7,317.1z M259.6,259.8h39.7
	v39.7h-39.7L259.6,259.8z M205.6,259.8h39.7v39.7h-39.7L205.6,259.8z M154.7,317.1c0-1.8,1.4-3.2,3.2-3.2c1.8,0,3.2,1.4,3.2,3.2
	c0,1.8-1.4,3.2-3.2,3.2C156.2,320.3,154.7,318.9,154.7,317.1L154.7,317.1L154.7,317.1z M151.6,259.8h39.7v39.7h-39.7L151.6,259.8z
	 M97.6,259.8h39.7v39.7H97.6L97.6,259.8z M43.6,259.8h39.7v39.7H43.6L43.6,259.8z M43.6,43.8h39.7v39.7H43.6L43.6,43.8z M22.7,317.1
	c0-1.8,1.4-3.2,3.2-3.2c1.8,0,3.2,1.4,3.2,3.2c0,1.8-1.4,3.2-3.2,3.2c0,0,0,0,0,0C24.2,320.3,22.7,318.9,22.7,317.1
	C22.7,317.1,22.7,317.1,22.7,317.1z M22.7,225.6c0-1.8,1.4-3.2,3.2-3.2s3.2,1.4,3.2,3.2c0,1.8-1.4,3.2-3.2,3.2c0,0,0,0,0,0
	C24.2,228.8,22.7,227.4,22.7,225.6C22.7,225.6,22.7,225.6,22.7,225.6z M22.7,117.6c0-1.8,1.4-3.2,3.2-3.2s3.2,1.4,3.2,3.2
	s-1.4,3.2-3.2,3.2c0,0,0,0,0,0C24.2,120.8,22.7,119.4,22.7,117.6C22.7,117.6,22.7,117.6,22.7,117.6z M22.7,26.1
	c0-1.8,1.4-3.2,3.2-3.2s3.2,1.4,3.2,3.2c0,1.8-1.4,3.2-3.2,3.2c0,0,0,0,0,0C24.2,29.3,22.7,27.9,22.7,26.1
	C22.7,26.1,22.7,26.1,22.7,26.1z"/>
<rect x="232.6" y="205.8" class="st1" width="39.7" height="39.7"/>
<rect x="205.6" y="151.8" class="st1" width="39.7" height="39.7"/>
<rect x="178.6" y="97.8" class="st1" width="39.7" height="39.7"/>
<rect x="151.6" y="151.8" class="st1" width="39.7" height="39.7"/>
<rect x="178.6" y="205.8" class="st1" width="39.7" height="39.7"/>
<rect x="124.6" y="97.8" class="st1" width="39.7" height="39.7"/>
<rect x="286.6" y="97.8" class="st1" width="39.7" height="39.7"/>
<rect x="286.6" y="205.8" class="st1" width="39.7" height="39.7"/>
<rect x="313.6" y="151.8" class="st1" width="39.7" height="39.7"/>
<rect x="259.6" y="151.8" class="st1" width="39.7" height="39.7"/>
<rect x="232.6" y="97.8" class="st1" width="39.7" height="39.7"/>
<rect x="70.6" y="97.8" class="st1" width="39.7" height="39.7"/>
<rect x="259.6" y="43.8" class="st1" width="39.7" height="39.7"/>
<rect x="313.6" y="43.8" class="st1" width="39.7" height="39.7"/>
<rect x="367.6" y="43.8" class="st1" width="39.7" height="39.7"/>
<path class="st1" d="M373.9,29.8c-2,0-3.7-1.6-3.7-3.7s1.6-3.7,3.7-3.7c2,0,3.7,1.6,3.7,3.7v0C377.6,28.2,376,29.8,373.9,29.8z"/>
<rect x="421.6" y="43.8" class="st1" width="39.7" height="39.7"/>
<rect x="124.6" y="205.8" class="st1" width="39.7" height="39.7"/>
<rect x="340.6" y="205.8" class="st1" width="39.7" height="39.7"/>
<rect x="151.6" y="43.8" class="st1" width="39.7" height="39.7"/>
<rect x="205.6" y="43.8" class="st1" width="39.7" height="39.7"/>
<rect x="664.6" y="97.8" class="st1" width="39.7" height="39.7"/>
<rect x="664.6" y="205.8" class="st1" width="39.7" height="39.7"/>
<rect x="475.6" y="43.8" class="st1" width="39.7" height="39.7"/>
<rect x="637.6" y="151.8" class="st1" width="39.7" height="39.7"/>
<rect x="610.6" y="97.8" class="st1" width="39.7" height="39.7"/>
<rect x="340.6" y="97.8" class="st1" width="39.7" height="39.7"/>
<rect x="691.6" y="151.8" class="st1" width="39.7" height="39.7"/>
<rect x="745.6" y="151.8" class="st1" width="39.7" height="39.7"/>
<rect x="97.6" y="43.8" class="st1" width="39.7" height="39.7"/>
<rect x="583.6" y="151.8" class="st1" width="39.7" height="39.7"/>
<rect x="718.6" y="97.8" class="st1" width="39.7" height="39.7"/>
<rect x="70.6" y="205.8" class="st1" width="39.7" height="39.7"/>
<rect x="610.6" y="205.8" class="st1" width="39.7" height="39.7"/>
<rect x="421.6" y="151.8" class="st1" width="39.7" height="39.7"/>
<rect x="394.6" y="97.8" class="st1" width="39.7" height="39.7"/>
<rect x="448.6" y="205.8" class="st1" width="39.7" height="39.7"/>
<rect x="394.6" y="205.8" class="st1" width="39.7" height="39.7"/>
<rect x="448.6" y="97.8" class="st1" width="39.7" height="39.7"/>
<rect x="367.6" y="151.8" class="st1" width="39.7" height="39.7"/>
<rect x="556.6" y="97.8" class="st1" width="39.7" height="39.7"/>
<rect x="556.6" y="205.8" class="st1" width="39.7" height="39.7"/>
<rect x="529.6" y="151.8" class="st1" width="39.7" height="39.7"/>
<rect x="502.6" y="205.8" class="st1" width="39.7" height="39.7"/>
<rect x="475.6" y="151.8" class="st1" width="39.7" height="39.7"/>
<rect x="502.6" y="97.8" class="st1" width="39.7" height="39.7"/>
<rect x="745.6" y="259.8" class="st1" width="39.7" height="39.7"/>
<rect x="637.6" y="259.8" class="st1" width="39.7" height="39.7"/>
<rect x="583.6" y="259.8" class="st1" width="39.7" height="39.7"/>
<rect x="529.6" y="43.8" class="st1" width="39.7" height="39.7"/>
<rect x="259.6" y="259.8" class="st1" width="39.7" height="39.7"/>
<rect x="529.6" y="259.8" class="st1" width="39.7" height="39.7"/>
<rect x="151.6" y="259.8" class="st1" width="39.7" height="39.7"/>
<rect x="205.6" y="259.8" class="st1" width="39.7" height="39.7"/>
<rect x="43.6" y="259.8" class="st1" width="39.7" height="39.7"/>
<rect x="43.6" y="43.8" class="st1" width="39.7" height="39.7"/>
<rect x="97.6" y="259.8" class="st1" width="39.7" height="39.7"/>
<rect x="691.6" y="259.8" class="st1" width="39.7" height="39.7"/>
<rect x="745.6" y="43.8" class="st1" width="39.7" height="39.7"/>
<rect x="691.6" y="43.8" class="st1" width="39.7" height="39.7"/>
<rect x="583.6" y="43.8" class="st1" width="39.7" height="39.7"/>
<rect x="772.6" y="97.8" class="st1" width="39.7" height="39.7"/>
<rect x="637.6" y="43.8" class="st1" width="39.7" height="39.7"/>
<rect x="758.7" y="41.2" class="st2" width="14.2" height="2.8"/>
<rect x="758.7" y="83.7" class="st2" width="14.2" height="2.8"/>
<rect x="704.7" y="41.2" class="st2" width="14.2" height="2.8"/>
<rect x="704.7" y="83.7" class="st2" width="14.2" height="2.8"/>
<rect x="650.8" y="41.2" class="st2" width="14.2" height="2.8"/>
<rect x="650.8" y="83.7" class="st2" width="14.2" height="2.8"/>
<rect x="596.8" y="41.2" class="st2" width="14.2" height="2.8"/>
<rect x="596.8" y="83.7" class="st2" width="14.2" height="2.8"/>
<rect x="542.8" y="41.2" class="st2" width="14.2" height="2.8"/>
<rect x="542.8" y="83.7" class="st2" width="14.2" height="2.8"/>
<rect x="488.9" y="41.2" class="st2" width="14.2" height="2.8"/>
<rect x="488.9" y="83.7" class="st2" width="14.2" height="2.8"/>
<rect x="434.9" y="41.2" class="st2" width="14.2" height="2.8"/>
<rect x="434.9" y="83.7" class="st2" width="14.2" height="2.8"/>
<rect x="380.9" y="41.2" class="st2" width="14.2" height="2.8"/>
<rect x="380.9" y="83.7" class="st2" width="14.2" height="2.8"/>
<rect x="327" y="41.2" class="st2" width="14.2" height="2.8"/>
<rect x="327" y="83.7" class="st2" width="14.2" height="2.8"/>
<rect x="273" y="41.2" class="st2" width="14.2" height="2.8"/>
<rect x="273" y="83.7" class="st2" width="14.2" height="2.8"/>
<rect x="219" y="41.2" class="st2" width="14.2" height="2.8"/>
<rect x="219" y="83.7" class="st2" width="14.2" height="2.8"/>
<rect x="165.1" y="41.2" class="st2" width="14.2" height="2.8"/>
<rect x="165.1" y="83.7" class="st2" width="14.2" height="2.8"/>
<rect x="111.1" y="41.2" class="st2" width="14.2" height="2.8"/>
<rect x="111.1" y="83.7" class="st2" width="14.2" height="2.8"/>
<rect x="57.1" y="41.2" class="st2" width="14.2" height="2.8"/>
<rect x="57.1" y="83.7" class="st2" width="14.2" height="2.8"/>
<rect x="83.7" y="95.2" class="st2" width="14.2" height="2.8"/>
<rect x="83.7" y="137.7" class="st2" width="14.2" height="2.8"/>
<rect x="137.7" y="95.2" class="st2" width="14.2" height="2.8"/>
<rect x="137.7" y="137.7" class="st2" width="14.2" height="2.8"/>
<rect x="191.7" y="95.2" class="st2" width="14.2" height="2.8"/>
<rect x="191.7" y="137.7" class="st2" width="14.2" height="2.8"/>
<rect x="245.7" y="95.2" class="st2" width="14.2" height="2.8"/>
<rect x="245.7" y="137.7" class="st2" width="14.2" height="2.8"/>
<rect x="299.7" y="95.2" class="st2" width="14.2" height="2.8"/>
<rect x="299.7" y="137.7" class="st2" width="14.2" height="2.8"/>
<rect x="353.7" y="95.2" class="st2" width="14.2" height="2.8"/>
<rect x="353.7" y="137.7" class="st2" width="14.2" height="2.8"/>
<rect x="407.6" y="95.2" class="st2" width="14.2" height="2.8"/>
<rect x="407.6" y="137.7" class="st2" width="14.2" height="2.8"/>
<rect x="461.6" y="95.2" class="st2" width="14.2" height="2.8"/>
<rect x="461.6" y="137.7" class="st2" width="14.2" height="2.8"/>
<rect x="515.6" y="95.2" class="st2" width="14.2" height="2.8"/>
<rect x="515.6" y="137.7" class="st2" width="14.2" height="2.8"/>
<rect x="569.6" y="95.2" class="st2" width="14.2" height="2.8"/>
<rect x="569.6" y="137.7" class="st2" width="14.2" height="2.8"/>
<rect x="623.6" y="95.2" class="st2" width="14.2" height="2.8"/>
<rect x="623.6" y="137.7" class="st2" width="14.2" height="2.8"/>
<rect x="677.6" y="95.2" class="st2" width="14.2" height="2.8"/>
<rect x="677.6" y="137.7" class="st2" width="14.2" height="2.8"/>
<rect x="731.5" y="95.2" class="st2" width="14.2" height="2.8"/>
<rect x="731.5" y="137.7" class="st2" width="14.2" height="2.8"/>
<rect x="785.5" y="95.2" class="st2" width="14.2" height="2.8"/>
<rect x="785.5" y="137.7" class="st2" width="14.2" height="2.8"/>
<rect x="758.7" y="149.2" class="st2" width="14.2" height="2.8"/>
<rect x="758.7" y="191.7" class="st2" width="14.2" height="2.8"/>
<rect x="704.7" y="149.2" class="st2" width="14.2" height="2.8"/>
<rect x="704.7" y="191.7" class="st2" width="14.2" height="2.8"/>
<rect x="650.7" y="149.2" class="st2" width="14.2" height="2.8"/>
<rect x="650.7" y="191.7" class="st2" width="14.2" height="2.8"/>
<rect x="596.7" y="149.2" class="st2" width="14.2" height="2.8"/>
<rect x="596.7" y="191.7" class="st2" width="14.2" height="2.8"/>
<rect x="542.7" y="149.2" class="st2" width="14.2" height="2.8"/>
<rect x="542.7" y="191.7" class="st2" width="14.2" height="2.8"/>
<rect x="488.7" y="149.2" class="st2" width="14.2" height="2.8"/>
<rect x="488.7" y="191.7" class="st2" width="14.2" height="2.8"/>
<rect x="434.7" y="149.2" class="st2" width="14.2" height="2.8"/>
<rect x="434.7" y="191.7" class="st2" width="14.2" height="2.8"/>
<rect x="380.7" y="149.2" class="st2" width="14.2" height="2.8"/>
<rect x="380.7" y="191.7" class="st2" width="14.2" height="2.8"/>
<rect x="326.7" y="149.2" class="st2" width="14.2" height="2.8"/>
<rect x="326.7" y="191.7" class="st2" width="14.2" height="2.8"/>
<rect x="272.7" y="149.2" class="st2" width="14.2" height="2.8"/>
<rect x="272.7" y="191.7" class="st2" width="14.2" height="2.8"/>
<rect x="218.7" y="149.2" class="st2" width="14.2" height="2.8"/>
<rect x="218.7" y="191.7" class="st2" width="14.2" height="2.8"/>
<rect x="164.7" y="149.2" class="st2" width="14.2" height="2.8"/>
<rect x="164.7" y="191.7" class="st2" width="14.2" height="2.8"/>
<rect x="110.7" y="191.7" class="st2" width="14.2" height="2.8"/>
<rect x="83.7" y="191.7" class="st2" width="14.2" height="2.8"/>
<rect x="56.7" y="191.7" class="st2" width="14.2" height="2.8"/>
<rect x="83.7" y="203.2" class="st2" width="14.2" height="2.8"/>
<rect x="83.7" y="245.7" class="st2" width="14.2" height="2.8"/>
<rect x="137.7" y="203.2" class="st2" width="14.2" height="2.8"/>
<rect x="137.7" y="245.7" class="st2" width="14.2" height="2.8"/>
<rect x="191.7" y="203.2" class="st2" width="14.2" height="2.8"/>
<rect x="191.7" y="245.7" class="st2" width="14.2" height="2.8"/>
<rect x="245.7" y="203.2" class="st2" width="14.2" height="2.8"/>
<rect x="245.7" y="245.7" class="st2" width="14.2" height="2.8"/>
<rect x="299.7" y="203.2" class="st2" width="14.2" height="2.8"/>
<rect x="299.7" y="245.7" class="st2" width="14.2" height="2.8"/>
<rect x="353.7" y="203.2" class="st2" width="14.2" height="2.8"/>
<rect x="353.7" y="245.7" class="st2" width="14.2" height="2.8"/>
<rect x="407.7" y="203.2" class="st2" width="14.2" height="2.8"/>
<rect x="407.7" y="245.7" class="st2" width="14.2" height="2.8"/>
<rect x="461.7" y="203.2" class="st2" width="14.2" height="2.8"/>
<rect x="461.7" y="245.7" class="st2" width="14.2" height="2.8"/>
<rect x="515.7" y="203.2" class="st2" width="14.2" height="2.8"/>
<rect x="515.7" y="245.7" class="st2" width="14.2" height="2.8"/>
<rect x="569.7" y="203.2" class="st2" width="14.2" height="2.8"/>
<rect x="569.7" y="245.7" class="st2" width="14.2" height="2.8"/>
<rect x="623.7" y="203.2" class="st2" width="14.2" height="2.8"/>
<rect x="623.7" y="245.7" class="st2" width="14.2" height="2.8"/>
<rect x="677.7" y="203.2" class="st2" width="14.2" height="2.8"/>
<rect x="677.7" y="245.7" class="st2" width="14.2" height="2.8"/>
<rect x="731.7" y="245.7" class="st2" width="14.2" height="2.8"/>
<rect x="785.7" y="245.7" class="st2" width="14.2" height="2.8"/>
<rect x="758.7" y="245.7" class="st2" width="14.2" height="2.8"/>
<rect x="758.7" y="257.2" class="st2" width="14.2" height="2.8"/>
<rect x="758.7" y="299.7" class="st2" width="14.2" height="2.8"/>
<rect x="704.7" y="257.2" class="st2" width="14.2" height="2.8"/>
<rect x="704.7" y="299.7" class="st2" width="14.2" height="2.8"/>
<rect x="650.8" y="257.2" class="st2" width="14.2" height="2.8"/>
<rect x="650.8" y="299.7" class="st2" width="14.2" height="2.8"/>
<rect x="596.8" y="257.2" class="st2" width="14.2" height="2.8"/>
<rect x="596.8" y="299.7" class="st2" width="14.2" height="2.8"/>
<rect x="542.8" y="257.2" class="st2" width="14.2" height="2.8"/>
<rect x="542.8" y="299.7" class="st2" width="14.2" height="2.8"/>
<rect x="488.9" y="299.7" class="st2" width="14.2" height="2.8"/>
<rect x="461.7" y="299.7" class="st2" width="14.2" height="2.8"/>
<rect x="434.9" y="299.7" class="st2" width="14.2" height="2.8"/>
<rect x="380.9" y="299.7" class="st2" width="14.2" height="2.8"/>
<rect x="353.7" y="299.7" class="st2" width="14.2" height="2.8"/>
<rect x="327" y="299.7" class="st2" width="14.2" height="2.8"/>
<rect x="314" y="248.5" class="st2" width="93.7" height="11.5"/>
<rect x="44" y="140.5" class="st2" width="93.7" height="11.5"/>
<rect x="422.3" y="248.5" class="st2" width="93.4" height="11.5"/>
<rect x="718.9" y="194.5" class="st2" width="93.8" height="11.5"/>
<rect x="731.3" y="47.3" class="st2" width="14.3" height="32.7"/>
<rect x="273" y="257.2" class="st2" width="14.2" height="2.8"/>
<rect x="273" y="299.7" class="st2" width="14.2" height="2.8"/>
<rect x="219" y="257.2" class="st2" width="14.2" height="2.8"/>
<rect x="219" y="299.7" class="st2" width="14.2" height="2.8"/>
<rect x="165.1" y="257.2" class="st2" width="14.2" height="2.8"/>
<rect x="165.1" y="299.7" class="st2" width="14.2" height="2.8"/>
<rect x="111.1" y="257.2" class="st2" width="14.2" height="2.8"/>
<rect x="111.1" y="299.7" class="st2" width="14.2" height="2.8"/>
<rect x="57.1" y="257.2" class="st2" width="14.2" height="2.8"/>
<rect x="57.1" y="299.7" class="st2" width="14.2" height="2.8"/>
</svg>
